<!--?xml version="1.0" encoding="UTF-8"?-->
<svg enable-background="new 0 0 356.923 356.923" version="1.1" viewBox="0 0 356.923 356.923" xml:space="preserve" xmlns="http://www.w3.org/2000/svg" style="">
<path fill="none" stroke="#FFD55C" d="M0,178.46A178.46,178.46 0,1,1 356.92,178.46A178.46,178.46 0,1,1 0,178.46" class="rVkuyVbw_0"></path>
<path d="m27.436 273.5c31.601 50.11 87.404 83.426 151.02 83.426s119.42-33.317 151.02-83.426h-302.05z" fill="#FFC640" class="rVkuyVbw_1"></path>
<path fill="none" stroke="#F2F2F2" d="M216.23,267.85L140.66,267.85L150.25,221.14L206.62,221.14Z" class="rVkuyVbw_2"></path>
<path fill="none" stroke="#D9D8D7" d="M216.23,267.85L206.62,221.14L150.25,221.14L196.96,267.85Z" class="rVkuyVbw_3"></path>
<path width="116.01" height="5.652" fill="none" stroke="#F2F2F2" d="M120.44 267.84 L236.45 267.84 L236.45 273.49199999999996 L120.44 273.49199999999996 Z" class="rVkuyVbw_4"></path>
<path d="m40.505 28.923c-3.867 0-7.038 3.188-7.038 7.057v178.1c0 3.882 3.17 7.052 7.038 7.052h275.89c3.879 0 7.065-3.17 7.065-7.052v-178.1c0-3.87-3.185-7.057-7.065-7.057h-275.89z" fill="#242D3C" class="rVkuyVbw_5"></path>
<path width="260.68" height="162.9" fill="none" stroke="#fff" d="M48.123 43.569 L308.803 43.569 L308.803 206.469 L48.123 206.469 Z" class="rVkuyVbw_6"></path>
<g fill="none" stroke="#D9D8D7">
	<path width="162.86" height="3.239" d="M130.9 171.64 L293.76 171.64 L293.76 174.879 L130.9 174.879 Z" class="rVkuyVbw_7"></path>
	<path width="55.06" height="3.239" d="M63.138 171.64 L118.19800000000001 171.64 L118.19800000000001 174.879 L63.138 174.879 Z" class="rVkuyVbw_8"></path>
	<path width="230.62" height="3.239" d="M63.138 181.69 L293.758 181.69 L293.758 184.929 L63.138 184.929 Z" class="rVkuyVbw_9"></path>
	<path width="115.31" height="3.239" d="M63.138 191.7 L178.448 191.7 L178.448 194.939 L63.138 194.939 Z" class="rVkuyVbw_10"></path>
</g>
<path width="33.716" height="104" fill="none" stroke="#FF6D3B" d="M67.766 55.126 L101.482 55.126 L101.482 159.126 L67.766 159.126 Z" class="rVkuyVbw_11"></path>
<path width="33.716" height="48.342" fill="none" stroke="#D9D8D7" d="M113.53 110.79 L147.246 110.79 L147.246 159.132 L113.53 159.132 Z" class="rVkuyVbw_12"></path>
<path width="33.716" height="87.22" fill="none" stroke="#3E4959" d="M159.31 71.911 L193.026 71.911 L193.026 159.131 L159.31 159.131 Z" class="rVkuyVbw_13"></path>
<path width="33.716" height="19.18" fill="none" stroke="#21D8DE" d="M205.1 139.94 L238.816 139.94 L238.816 159.12 L205.1 159.12 Z" class="rVkuyVbw_14"></path>
<g fill="none" stroke="#D9D8D7">
	<path width="16.768" height="3.567" d="M262.67 57.831 L279.438 57.831 L279.438 61.398 L262.67 61.398 Z" class="rVkuyVbw_15"></path>
	<path width="7.038" height="3.567" d="M282.09 57.831 L289.128 57.831 L289.128 61.398 L282.09 61.398 Z" class="rVkuyVbw_16"></path>
	<path width="26.466" height="3.567" d="M262.67 86.449 L289.136 86.449 L289.136 90.01599999999999 L262.67 90.01599999999999 Z" class="rVkuyVbw_17"></path>
	<path width="4.18" height="3.569" d="M284.95 100.75 L289.13 100.75 L289.13 104.319 L284.95 104.319 Z" class="rVkuyVbw_18"></path>
	<path width="20.052" height="3.569" d="M262.67 100.75 L282.72200000000004 100.75 L282.72200000000004 104.319 L262.67 104.319 Z" class="rVkuyVbw_19"></path>
	<path width="4.898" height="3.567" d="M262.67 72.14 L267.56800000000004 72.14 L267.56800000000004 75.707 L262.67 75.707 Z" class="rVkuyVbw_20"></path>
	<path width="7.458" height="3.567" d="M270.97 72.14 L278.42800000000005 72.14 L278.42800000000005 75.707 L270.97 75.707 Z" class="rVkuyVbw_21"></path>
	<path width="7.458" height="3.567" d="M281.67 72.14 L289.12800000000004 72.14 L289.12800000000004 75.707 L281.67 75.707 Z" class="rVkuyVbw_22"></path>
</g>
<path fill="none" stroke="#3E4959" d="M248.74800000000002,59.616A4.492,4.492 0,1,1 257.732,59.616A4.492,4.492 0,1,1 248.74800000000002,59.616" class="rVkuyVbw_23"></path>
<path fill="none" stroke="#D9D8D7" d="M248.74800000000002,73.92A4.492,4.492 0,1,1 257.732,73.92A4.492,4.492 0,1,1 248.74800000000002,73.92" class="rVkuyVbw_24"></path>
<path fill="none" stroke="#FF6D3B" d="M248.74800000000002,88.222A4.492,4.492 0,1,1 257.732,88.222A4.492,4.492 0,1,1 248.74800000000002,88.222" class="rVkuyVbw_25"></path>
<path fill="none" stroke="#21D8DE" d="M248.74800000000002,102.52A4.492,4.492 0,1,1 257.732,102.52A4.492,4.492 0,1,1 248.74800000000002,102.52" class="rVkuyVbw_26"></path>
<style>.rVkuyVbw_0{stroke-dasharray:1122 1124;stroke-dashoffset:1123;animation:rVkuyVbw_draw 2980ms ease-in 0ms forwards;}.rVkuyVbw_1{stroke-dasharray:663 665;stroke-dashoffset:664;animation:rVkuyVbw_draw 2980ms ease-in 0ms forwards;}.rVkuyVbw_2{stroke-dasharray:228 230;stroke-dashoffset:229;animation:rVkuyVbw_draw 2980ms ease-in 1ms forwards;}.rVkuyVbw_3{stroke-dasharray:190 192;stroke-dashoffset:191;animation:rVkuyVbw_draw 2980ms ease-in 2ms forwards;}.rVkuyVbw_4{stroke-dasharray:244 246;stroke-dashoffset:245;animation:rVkuyVbw_draw 2980ms ease-in 3ms forwards;}.rVkuyVbw_5{stroke-dasharray:953 955;stroke-dashoffset:954;animation:rVkuyVbw_draw 2980ms ease-in 3ms forwards;}.rVkuyVbw_6{stroke-dasharray:848 850;stroke-dashoffset:849;animation:rVkuyVbw_draw 2980ms ease-in 4ms forwards;}.rVkuyVbw_7{stroke-dasharray:333 335;stroke-dashoffset:334;animation:rVkuyVbw_draw 2980ms ease-in 5ms forwards;}.rVkuyVbw_8{stroke-dasharray:117 119;stroke-dashoffset:118;animation:rVkuyVbw_draw 2980ms ease-in 6ms forwards;}.rVkuyVbw_9{stroke-dasharray:468 470;stroke-dashoffset:469;animation:rVkuyVbw_draw 2980ms ease-in 6ms forwards;}.rVkuyVbw_10{stroke-dasharray:238 240;stroke-dashoffset:239;animation:rVkuyVbw_draw 2980ms ease-in 7ms forwards;}.rVkuyVbw_11{stroke-dasharray:276 278;stroke-dashoffset:277;animation:rVkuyVbw_draw 2980ms ease-in 8ms forwards;}.rVkuyVbw_12{stroke-dasharray:165 167;stroke-dashoffset:166;animation:rVkuyVbw_draw 2980ms ease-in 9ms forwards;}.rVkuyVbw_13{stroke-dasharray:242 244;stroke-dashoffset:243;animation:rVkuyVbw_draw 2980ms ease-in 10ms forwards;}.rVkuyVbw_14{stroke-dasharray:106 108;stroke-dashoffset:107;animation:rVkuyVbw_draw 2980ms ease-in 10ms forwards;}.rVkuyVbw_15{stroke-dasharray:41 43;stroke-dashoffset:42;animation:rVkuyVbw_draw 2980ms ease-in 11ms forwards;}.rVkuyVbw_16{stroke-dasharray:22 24;stroke-dashoffset:23;animation:rVkuyVbw_draw 2980ms ease-in 12ms forwards;}.rVkuyVbw_17{stroke-dasharray:61 63;stroke-dashoffset:62;animation:rVkuyVbw_draw 2980ms ease-in 13ms forwards;}.rVkuyVbw_18{stroke-dasharray:16 18;stroke-dashoffset:17;animation:rVkuyVbw_draw 2980ms ease-in 13ms forwards;}.rVkuyVbw_19{stroke-dasharray:48 50;stroke-dashoffset:49;animation:rVkuyVbw_draw 2980ms ease-in 14ms forwards;}.rVkuyVbw_20{stroke-dasharray:17 19;stroke-dashoffset:18;animation:rVkuyVbw_draw 2980ms ease-in 15ms forwards;}.rVkuyVbw_21{stroke-dasharray:23 25;stroke-dashoffset:24;animation:rVkuyVbw_draw 2980ms ease-in 16ms forwards;}.rVkuyVbw_22{stroke-dasharray:23 25;stroke-dashoffset:24;animation:rVkuyVbw_draw 2980ms ease-in 16ms forwards;}.rVkuyVbw_23{stroke-dasharray:29 31;stroke-dashoffset:30;animation:rVkuyVbw_draw 2980ms ease-in 17ms forwards;}.rVkuyVbw_24{stroke-dasharray:29 31;stroke-dashoffset:30;animation:rVkuyVbw_draw 2980ms ease-in 18ms forwards;}.rVkuyVbw_25{stroke-dasharray:29 31;stroke-dashoffset:30;animation:rVkuyVbw_draw 2980ms ease-in 19ms forwards;}.rVkuyVbw_26{stroke-dasharray:29 31;stroke-dashoffset:30;animation:rVkuyVbw_draw 2980ms ease-in 20ms forwards;}@keyframes rVkuyVbw_draw{100%{stroke-dashoffset:0;}}@keyframes rVkuyVbw_fade{0%{stroke-opacity:1;}94.44444444444444%{stroke-opacity:1;}100%{stroke-opacity:0;}}</style></svg>
