<?xml version="1.0" encoding="iso-8859-1"?>
<!-- Generator: Adobe Illustrator 19.0.0, SVG Export Plug-In . SVG Version: 6.00 Build 0)  -->
<svg xmlns="http://www.w3.org/2000/svg" xmlns:xlink="http://www.w3.org/1999/xlink" version="1.1" id="Layer_1" x="0px" y="0px" viewBox="0 0 512 512" style="enable-background:new 0 0 512 512;" xml:space="preserve" width="512px" height="512px">
<circle style="fill:#CFDCE5;" cx="256" cy="256" r="256"/>
<g>
	<path style="fill:none; stroke:#415E72;" d="M282.568,432.96c-15.296-31.504-4.68-69.472,24.736-88.472c51.528-36.192,65.96-56.296,65.96-56.296   s28.856-8.04,16.488,16.088c-8.288,15.4-19.48,29.056-32.952,40.208c0,0,39.2-8.04,49.472-40.216s0-50.264,24.736-56.296   c0,0,12.368,60.32-24.736,96.512S325.856,394.76,323.8,432.96H282.568z"/>
	<path style="fill:none; stroke:#415E72;" d="M229.432,432.96c15.296-31.504,4.68-69.472-24.736-88.472c-51.528-36.192-65.96-56.296-65.96-56.296   s-28.856-8.04-16.488,16.088c8.288,15.4,19.48,29.056,32.952,40.208c0,0-39.2-8.04-49.472-40.216s0-50.264-24.736-56.296   c0,0-12.368,60.32,24.736,96.512s80.416,50.272,82.472,88.472L229.432,432.96L229.432,432.96z"/>
</g>
<g id="heart">
	<path style="fill:#FFFFFF;" d="M256,100v180.856L163.72,175.92c0,0-35.12-44.92-0.8-78.808C194.12,66.264,237.6,80.368,256,100z"/>
	<path style="fill:#FFFFFF;" d="M256,100v180.856l92.28-104.936c0,0,35.12-44.92,0.8-78.808C317.88,66.264,274.4,80.368,256,100z"/>
</g>
<g>
</g>
<g>
</g>
<g>
</g>
<g>
</g>
<g>
</g>
<g>
</g>
<g>
</g>
<g>
</g>
<g>
</g>
<g>
</g>
<g>
</g>
<g>
</g>
<g>
</g>
<g>
</g>
<g>
</g>
<style>	#heart {
	animation: beat .25s infinite alternate;
	transform-origin: center;
}
@keyframes beat{
	to { transform: scale(1.4); }
}
</style>
</svg>
