<?xml version="1.0" encoding="UTF-8" standalone="no"?>
<!-- Created with Inkscape (http://www.inkscape.org/) -->

<svg
   xmlns:osb="http://www.openswatchbook.org/uri/2009/osb"
   xmlns:dc="http://purl.org/dc/elements/1.1/"
   xmlns:cc="http://creativecommons.org/ns#"
   xmlns:rdf="http://www.w3.org/1999/02/22-rdf-syntax-ns#"
   xmlns:svg="http://www.w3.org/2000/svg"
   xmlns="http://www.w3.org/2000/svg"
   xmlns:sodipodi="http://sodipodi.sourceforge.net/DTD/sodipodi-0.dtd"
   xmlns:inkscape="http://www.inkscape.org/namespaces/inkscape"
   width="210mm"
   height="297mm"
   viewBox="0 0 744.09448819 1052.3622047"
   id="svg2"
   version="1.1"
   inkscape:version="0.91 r13725"
   sodipodi:docname="home.svg">
  <defs
     id="defs4">
    <linearGradient
       id="linearGradient5655"
       osb:paint="solid">
      <stop
         style="stop-color:#000000;stop-opacity:1;"
         offset="0"
         id="stop5657" />
    </linearGradient>
  </defs>
  <sodipodi:namedview
     id="base"
     pagecolor="#ffffff"
     bordercolor="#666666"
     borderopacity="1.0"
     inkscape:pageopacity="0.0"
     inkscape:pageshadow="2"
     inkscape:zoom="0.35"
     inkscape:cx="-320.71429"
     inkscape:cy="634.28571"
     inkscape:document-units="px"
     inkscape:current-layer="text3379"
     showgrid="false"
     inkscape:window-width="1502"
     inkscape:window-height="837"
     inkscape:window-x="297"
     inkscape:window-y="265"
     inkscape:window-maximized="0" />
  <metadata
     id="metadata7">
    <rdf:RDF>
      <cc:Work
         rdf:about="">
        <dc:format>image/svg+xml</dc:format>
        <dc:type
           rdf:resource="http://purl.org/dc/dcmitype/StillImage" />
      </cc:Work>
    </rdf:RDF>
  </metadata>
  <g
     inkscape:label="Layer 1"
     inkscape:groupmode="layer"
     id="layer1">
    <g
       transform="scale(0.839023,1.1918624)"
       style="font-style:normal;font-variant:normal;font-weight:normal;font-stretch:semi-condensed;font-size:60.36743164px;line-height:125%;font-family:Symbola;-inkscape-font-specification:'Symbola Semi-Condensed';letter-spacing:0px;word-spacing:0px;fill:none;fill-opacity:1;stroke:#000000;stroke-width:6.20000029;stroke-linecap:butt;stroke-linejoin:miter;stroke-miterlimit:4;stroke-dasharray:none;stroke-opacity:1"
       id="text3379">
      <path
         d="m 67.648133,297.12625 q -2.616021,-0.22107 -4.163526,-0.22107 l -13.301175,0 q -1.326433,0 -3.942454,0.22107 l 0,-2.24757 q 0.331609,0 1.068516,0.0369 0.663216,0 1.03167,0 4.384598,0 5.047814,-1.32643 0.294763,-0.58953 0.294763,-1.65804 l 0,-19.52805 -21.738762,0 0,19.52805 q 0,1.06851 0.294763,1.65804 0.663216,1.32643 7.258536,1.28958 l 0,2.24757 q -2.616021,-0.22107 -4.237217,-0.22107 l -13.190639,0 q -1.363278,0 -3.979299,0.22107 l 0,-2.24757 q 0.331609,0 1.031671,0.0369 0.663216,0 1.03167,0 4.458288,0 5.121505,-1.32643 0.257917,-0.51584 0.257917,-1.65804 l 0,-39.20347 q 0,-1.1422 -0.257917,-1.65804 -0.626371,-1.25274 -5.489959,-1.25274 l -1.694887,0 0,-2.28441 q 2.579176,0.22107 4.126681,0.22107 l 13.043257,0 q 1.658041,0 4.237217,-0.22107 l 0,2.28441 q -0.331609,0 -1.03167,-0.0369 -0.663217,-0.0368 -0.994825,-0.0368 -4.531979,0 -5.232041,1.32643 -0.294763,0.58953 -0.294763,1.65804 l 0,17.4647 21.738762,0 0,-17.4647 q 0,-1.06851 -0.294763,-1.65804 -0.626371,-1.25274 -5.453113,-1.25274 l -1.694887,0 0,-2.28441 q 2.579176,0.22107 4.126681,0.22107 l 13.116948,0 q 1.58435,0 4.163526,-0.22107 l 0,2.28441 q -0.331609,0 -1.03167,-0.0369 -0.663217,-0.0368 -1.031671,-0.0368 -4.495133,0 -5.15835,1.32643 -0.294763,0.58953 -0.294763,1.65804 l 0,39.20347 q 0,1.06851 0.294763,1.65804 0.663217,1.32643 7.221691,1.28958 l 0,2.24757 z"
         style="font-style:normal;font-variant:normal;font-weight:normal;font-stretch:semi-condensed;font-size:75.45929718px;font-family:Symbola;-inkscape-font-specification:'Symbola Semi-Condensed';fill:none;stroke:#000000;stroke-width:6.20000029;stroke-miterlimit:4;stroke-dasharray:none;stroke-opacity:1"
         id="path5662" />
      <path
         d="m 102.57753,287.76753 q 0,1.10536 -1.28958,3.31608 -4.052994,6.92693 -11.864211,6.92693 -7.295381,0 -12.380041,-5.48996 -4.974123,-5.37942 -4.974123,-12.74849 0,-7.148 4.568824,-12.45373 4.789897,-5.56365 11.827361,-5.56365 6.632165,0 10.464082,4.53197 3.647688,4.23722 3.647688,10.97992 0,2.0265 -1.9528,2.0265 l -22.033526,0 q 0,7.62699 2.358103,11.42206 3.316082,5.30573 8.916577,5.30573 7.295381,0 10.685156,-8.14282 0.44214,-1.06852 1.03167,-1.06852 0.99482,0 0.99482,0.95798 z m -5.195193,-10.86938 q -0.07369,-5.15835 -1.915959,-8.7692 -2.394948,-4.56882 -7.000618,-4.56882 -1.51066,0 -3.316082,0.84744 -5.968949,2.83709 -6.447938,12.49058 l 18.680597,0 z"
         style="font-style:normal;font-variant:normal;font-weight:normal;font-stretch:semi-condensed;font-size:75.45929718px;font-family:Symbola;-inkscape-font-specification:'Symbola Semi-Condensed';fill:none;stroke:#000000;stroke-width:6.20000029;stroke-miterlimit:4;stroke-dasharray:none;stroke-opacity:1"
         id="path5664" />
      <path
         d="m 123.87415,297.12625 q -8.10598,-0.22107 -8.7692,-0.22107 -1.36328,0 -8.6955,0.22107 l 0,-2.43179 q 0.36845,0 1.21589,0.0368 0.84745,0.0369 1.28959,0.0369 3.61085,0 3.61085,-3.61085 l 0,-41.08257 q 0,-3.20555 -1.6212,-3.9793 -0.84744,-0.4053 -4.49513,-0.36846 l 0,-2.46864 11.27468,-0.84744 0,48.74641 q 0,1.84227 0.44214,2.46864 0.55268,0.77375 2.39495,0.99483 0.8106,0.11053 3.35293,0.0737 l 0,2.43179 z"
         style="font-style:normal;font-variant:normal;font-weight:normal;font-stretch:semi-condensed;font-size:75.45929718px;font-family:Symbola;-inkscape-font-specification:'Symbola Semi-Condensed';fill:none;stroke:#000000;stroke-width:6.20000029;stroke-miterlimit:4;stroke-dasharray:none;stroke-opacity:1"
         id="path5666" />
      <path
         d="m 166.61477,280.14054 q 0,7.33223 -5.1215,12.60111 -5.12151,5.26889 -12.41689,5.26889 -2.87394,0 -5.67419,-1.47381 -3.13185,-1.6212 -4.05299,-4.08984 l 0,14.296 q 0,1.54751 0.4053,2.17388 0.84745,1.28958 5.71103,1.03167 l 0,2.43179 q -6.22686,-0.18423 -8.87973,-0.18423 -2.68971,0 -8.80604,0.18423 l 0,-2.43179 q 1.36328,0.0737 1.73173,0.0737 2.54233,0 3.31609,-0.51584 1.10536,-0.70006 1.10536,-3.05816 l 0,-36.91905 q 0,-1.87912 -0.29477,-2.46864 -0.44214,-0.92114 -2.06334,-1.32644 -0.84744,-0.18422 -3.79507,-0.11053 l 0,-2.50549 11.31153,-0.84744 0,5.1952 q 4.67936,-5.1952 11.0536,-5.1952 6.96378,0 11.82736,5.48996 4.64252,5.30573 4.64252,12.38004 z m -6.55847,0 q 0,-5.56365 -2.46864,-10.24301 -2.98448,-5.67419 -8.03229,-5.67419 -6.59532,0 -10.20617,6.33741 l 0,17.61208 q 0,1.69489 1.10536,3.27924 3.35293,4.78989 8.29021,4.78989 5.34258,0 8.58497,-5.60049 2.72656,-4.71621 2.72656,-10.50093 z"
         style="font-style:normal;font-variant:normal;font-weight:normal;font-stretch:semi-condensed;font-size:75.45929718px;font-family:Symbola;-inkscape-font-specification:'Symbola Semi-Condensed';fill:none;stroke:#000000;stroke-width:6.20000029;stroke-miterlimit:4;stroke-dasharray:none;stroke-opacity:1"
         id="path5668" />
      <path
         d="m 182.16351,250.11157 q 0,1.76858 -1.25274,3.02132 -1.2159,1.2159 -2.98448,1.2159 -1.69488,0 -2.91078,-1.25274 -1.2159,-1.28959 -1.2159,-2.98448 0,-1.65804 1.2159,-2.91078 1.25274,-1.25274 2.91078,-1.25274 1.76858,0 2.98448,1.21589 1.25274,1.2159 1.25274,2.94763 z m 5.1952,47.01468 q -7.44277,-0.22107 -8.21652,-0.22107 -1.51066,0 -8.62181,0.22107 l 0,-2.43179 q 1.87911,0.0368 1.62119,0.0368 2.4318,0 3.27924,-0.47899 1.2159,-0.66321 1.2159,-2.91078 l 0,-21.444 q 0,-3.13186 -1.51066,-3.86876 -0.84745,-0.44215 -4.31091,-0.4053 l 0,-2.50549 10.97992,-0.84744 0,29.54998 q 0,2.17388 1.87911,2.68971 0.88429,0.25792 3.68454,0.18423 l 0,2.43179 z"
         style="font-style:normal;font-variant:normal;font-weight:normal;font-stretch:semi-condensed;font-size:75.45929718px;font-family:Symbola;-inkscape-font-specification:'Symbola Semi-Condensed';fill:none;stroke:#000000;stroke-width:6.20000029;stroke-miterlimit:4;stroke-dasharray:none;stroke-opacity:1"
         id="path5670" />
      <path
         d="m 230.94676,297.12625 q -7.36907,-0.22107 -8.91658,-0.22107 -1.25274,0 -8.84288,0.22107 l 0,-2.43179 q 1.06851,0.0368 1.76857,0.0368 2.32126,0 3.16871,-0.44214 1.21589,-0.70006 1.21589,-2.80025 l 0,-19.12274 q 0,-8.3639 -5.82156,-8.3639 -4.7899,0 -7.84807,4.01615 -2.80024,3.68453 -2.80024,8.62181 l 0,14.73815 q 0,1.40012 0.36845,2.13703 0.73691,1.43696 5.71103,1.17905 l 0,2.43179 q -7.33223,-0.22107 -8.80604,-0.22107 -1.25274,0 -8.84289,0.22107 l 0,-2.43179 q 1.06852,0.0368 1.73174,0.0368 2.50548,0 3.31608,-0.51583 1.06851,-0.70006 1.06851,-3.05817 l 0,-21.14923 q 0,-3.20555 -1.62119,-4.01615 -0.92114,-0.44214 -4.49514,-0.36845 l 0,-2.50549 11.09046,-0.84744 0,8.29021 q 3.72138,-8.29021 11.64313,-8.29021 10.75885,0 10.75885,11.64313 l 0,18.42268 q 0,2.65287 6.15317,2.35811 l 0,2.43179 z"
         style="font-style:normal;font-variant:normal;font-weight:normal;font-stretch:semi-condensed;font-size:75.45929718px;font-family:Symbola;-inkscape-font-specification:'Symbola Semi-Condensed';fill:none;stroke:#000000;stroke-width:6.20000029;stroke-miterlimit:4;stroke-dasharray:none;stroke-opacity:1"
         id="path5672" />
      <path
         d="m 270.77659,265.25501 q 0,2.35811 -2.28441,2.35811 -2.28441,0 -2.28441,-2.24757 0,-1.62119 1.25274,-2.17388 -0.33161,-0.0737 -0.73691,-0.0737 -3.83191,0 -7.11115,3.09501 3.20555,2.98448 3.20555,7.62699 0,4.93728 -3.9793,8.32706 -3.75823,3.24239 -8.7692,3.24239 -4.34775,0 -7.81121,-2.46864 -1.32644,1.58435 -1.32644,3.68453 0,5.48996 6.7427,5.48996 0.70007,0 2.06334,-0.0368 1.36328,-0.0737 2.06334,-0.0737 8.91658,0 12.71165,2.17387 5.23204,2.98448 5.23204,8.99027 0,5.15835 -6.52162,7.99544 -5.01097,2.17388 -11.01677,2.17388 -5.85841,0 -10.90622,-2.17388 -6.52163,-2.80024 -6.52163,-7.81121 0,-2.8371 2.28441,-5.04782 2.02649,-1.9528 4.97412,-2.80024 -3.46346,-2.28442 -3.46346,-7.07431 0,-3.61085 2.43179,-6.48479 -3.72138,-3.13185 -3.72138,-8.14282 0,-4.93728 3.9793,-8.32705 3.79507,-3.20555 8.80604,-3.20555 4.75305,0 8.3639,2.83709 3.79507,-3.72138 8.3639,-3.72138 1.65804,0 2.80024,1.10536 1.17905,1.10536 1.17905,2.7634 z m -13.81701,8.54813 q 0,-9.72718 -6.89008,-9.72718 -3.75822,0 -5.63734,3.20555 -1.25274,2.13703 -1.25274,6.55847 0,9.72718 6.89008,9.72718 3.72138,0 5.6005,-3.1687 1.28958,-2.17388 1.28958,-6.59532 z m 8.58497,29.54998 q 0,-6.7427 -13.15379,-6.7427 l -7.03746,0 q -2.65287,0 -4.60567,2.02649 -1.91596,2.06334 -1.91596,4.71621 0,4.01614 4.93728,6.3374 3.97929,1.87911 8.51127,1.87911 4.49514,0 8.40075,-1.87911 4.86358,-2.3581 4.86358,-6.3374 z"
         style="font-style:normal;font-variant:normal;font-weight:normal;font-stretch:semi-condensed;font-size:75.45929718px;font-family:Symbola;-inkscape-font-specification:'Symbola Semi-Condensed';fill:none;stroke:#000000;stroke-width:6.20000029;stroke-miterlimit:4;stroke-dasharray:none;stroke-opacity:1"
         id="path5674" />
      <path
         d="m 332.12413,265.62347 q -5.23204,-0.0369 -7.33223,5.01097 l -13.8907,33.63981 q -3.72138,9.02711 -10.09563,9.02711 -2.80024,0 -4.93727,-1.76857 -2.28442,-1.91596 -2.28442,-4.64252 0,-3.35293 3.27924,-3.35293 1.43697,0 2.39495,0.92114 0.95798,0.95798 0.95798,2.3581 0,2.98448 -3.13186,3.35293 1.51066,1.40012 3.72138,1.40012 3.42662,0 5.82157,-3.38977 1.17905,-1.65804 3.1687,-6.37425 0.66322,-1.5475 1.95281,-4.67936 l -11.82736,-28.77622 q -0.8106,-1.98965 -2.57918,-2.50549 -0.95798,-0.29476 -3.75823,-0.22107 l 0,-2.50549 q 4.42145,0.29477 7.62699,0.29477 1.10536,0 8.58497,-0.29477 l 0,2.50549 q -4.42144,-0.0369 -4.42144,1.98965 0,0.70006 9.21134,22.69674 l 7.99544,-19.45435 q 0.51584,-1.25274 0.51584,-1.84227 0,-3.31608 -3.72138,-3.38977 l 0,-2.50549 q 6.26371,0.29477 6.81639,0.29477 2.54233,0 5.9321,-0.29477 l 0,2.50549 z"
         style="font-style:normal;font-variant:normal;font-weight:normal;font-stretch:semi-condensed;font-size:75.45929718px;font-family:Symbola;-inkscape-font-specification:'Symbola Semi-Condensed';fill:none;stroke:#000000;stroke-width:6.20000029;stroke-miterlimit:4;stroke-dasharray:none;stroke-opacity:1"
         id="path5676" />
      <path
         d="m 370.99596,280.25108 q 0,7.33222 -5.1215,12.56426 -5.12151,5.1952 -12.41689,5.1952 -7.22169,0 -12.3432,-5.23204 -5.08465,-5.26889 -5.08465,-12.52742 0,-7.40592 5.01096,-12.89588 5.15835,-5.60049 12.49058,-5.60049 7.29538,0 12.45373,5.63734 5.01097,5.48995 5.01097,12.85903 z m -6.59532,-0.66322 q 0,-7.5533 -2.06334,-10.94307 -3.09501,-5.08466 -8.87973,-5.08466 -6.04264,0 -9.02711,5.26888 -1.87912,3.31609 -1.87912,10.75885 0,7.62699 2.0265,11.1273 3.05816,5.30573 8.95342,5.30573 6.15318,0 9.13765,-5.82157 1.73173,-3.38977 1.73173,-10.61146 z"
         style="font-style:normal;font-variant:normal;font-weight:normal;font-stretch:semi-condensed;font-size:75.45929718px;font-family:Symbola;-inkscape-font-specification:'Symbola Semi-Condensed';fill:none;stroke:#000000;stroke-width:6.20000029;stroke-miterlimit:4;stroke-dasharray:none;stroke-opacity:1"
         id="path5678" />
      <path
         d="m 414.58404,297.12625 -11.34837,0.88429 0,-7.11115 q -3.27923,7.11115 -10.16932,7.11115 -7.07431,0 -9.69033,-3.24239 -2.32125,-2.87394 -2.32125,-10.13248 l 0,-13.81701 q 0,-3.75822 -1.28959,-4.64251 -0.88429,-0.58953 -4.82674,-0.55268 l 0,-2.50549 11.56944,-0.84744 0,26.16021 q 0,4.20037 1.32643,5.89525 1.54751,1.91596 5.6005,1.91596 4.56882,0 7.22169,-3.9793 2.32126,-3.46346 2.32126,-8.25336 l 0,-14.00123 q 0,-3.20555 -1.65805,-4.01615 -0.92113,-0.44214 -4.49513,-0.36845 l 0,-2.50549 11.60629,-0.84744 0,28.03932 q 0,3.20555 1.65804,4.01614 0.92113,0.44215 4.49513,0.36846 l 0,2.43179 z"
         style="font-style:normal;font-variant:normal;font-weight:normal;font-stretch:semi-condensed;font-size:75.45929718px;font-family:Symbola;-inkscape-font-specification:'Symbola Semi-Condensed';fill:none;stroke:#000000;stroke-width:6.20000029;stroke-miterlimit:4;stroke-dasharray:none;stroke-opacity:1"
         id="path5680" />
      <path
         d="m 56.373452,374.46466 q 0,7.33223 -5.121505,12.60111 -5.121505,5.26889 -12.416886,5.26889 -6.595319,0 -10.353546,-5.78472 -0.884289,1.69489 -2.837093,4.90043 l -1.952804,0 0,-47.05152 q 0,-3.24239 -1.731732,-4.01615 -0.921134,-0.44214 -4.421443,-0.3316 l 0,-2.46864 11.311526,-0.84745 0,24.98116 q 4.458288,-5.12151 10.869381,-5.12151 7.037464,0 11.937896,5.45312 4.716206,5.26888 4.716206,12.41688 z m -6.558474,-0.11053 q 0,-7.33223 -2.210721,-10.94308 -3.131856,-5.08466 -8.290206,-5.08466 -3.352928,0 -6.59532,2.24757 -3.610845,2.46864 -3.610845,5.63734 l 0,16.28565 q 0,1.65804 1.105361,3.27924 3.279237,4.78989 8.290206,4.78989 5.674185,0 8.953422,-5.08466 2.358103,-3.64769 2.358103,-11.12729 z"
         style="font-style:normal;font-variant:normal;font-weight:normal;font-stretch:semi-condensed;font-size:75.45929718px;font-family:Symbola;-inkscape-font-specification:'Symbola Semi-Condensed';fill:none;stroke:#000000;stroke-width:6.20000029;stroke-miterlimit:4;stroke-dasharray:none;stroke-opacity:1"
         id="path5682" />
      <path
         d="m 86.734027,361.4214 q 0,1.47382 -0.957979,2.46864 -0.921134,0.99483 -2.394948,0.99483 -1.436969,0 -2.431794,-0.95798 -0.95798,-0.95798 -0.95798,-2.43179 0,-2.35811 1.768578,-3.09502 -0.221072,-0.0737 -0.515835,-0.0737 -5.010969,0 -7.62699,5.15835 -2.026495,4.08984 -2.026495,9.65349 l 0,12.74849 q 0,2.28442 2.063341,2.87394 0.847443,0.25792 3.979298,0.25792 l 1.621196,0 0,2.43179 q -2.984474,-0.22107 -5.416268,-0.22107 l -6.411092,0 q -1.400124,0 -3.574,0.0737 -2.947629,0.14738 -3.574,0.14738 l 0,-2.43179 q 0.405299,0 1.215897,0.0368 0.810598,0.0368 1.252742,0.0368 3.684536,0 3.684536,-3.61085 l 0,-21.14923 q 0,-3.20555 -1.658041,-4.01615 -0.884289,-0.4053 -4.495134,-0.36845 l 0,-2.50548 10.943072,-0.84745 0,8.65866 q 2.800247,-8.65866 9.653484,-8.65866 2.210722,0 3.942454,1.28959 1.915958,1.40012 1.915958,3.53715 z"
         style="font-style:normal;font-variant:normal;font-weight:normal;font-stretch:semi-condensed;font-size:75.45929718px;font-family:Symbola;-inkscape-font-specification:'Symbola Semi-Condensed';fill:none;stroke:#000000;stroke-width:6.20000029;stroke-miterlimit:4;stroke-dasharray:none;stroke-opacity:1"
         id="path5684" />
      <path
         d="m 102.28277,344.43569 q 0,1.76858 -1.25274,3.02132 -1.215896,1.2159 -2.984473,1.2159 -1.694887,0 -2.910784,-1.25274 -1.215897,-1.28959 -1.215897,-2.98448 0,-1.65804 1.215897,-2.91078 1.252743,-1.25274 2.910784,-1.25274 1.768577,0 2.984473,1.21589 1.25274,1.2159 1.25274,2.94763 z m 5.1952,47.01468 q -7.44276,-0.22107 -8.216516,-0.22107 -1.51066,0 -8.621815,0.22107 l 0,-2.43179 q 1.879114,0.0368 1.621196,0.0368 2.431794,0 3.279237,-0.47899 1.215897,-0.66321 1.215897,-2.91078 l 0,-21.444 q 0,-3.13185 -1.51066,-3.86876 -0.847443,-0.44215 -4.310907,-0.4053 l 0,-2.50548 10.979918,-0.84745 0,29.54998 q 0,2.17388 1.87911,2.68971 0.88429,0.25792 3.68454,0.18423 l 0,2.43179 z"
         style="font-style:normal;font-variant:normal;font-weight:normal;font-stretch:semi-condensed;font-size:75.45929718px;font-family:Symbola;-inkscape-font-specification:'Symbola Semi-Condensed';fill:none;stroke:#000000;stroke-width:6.20000029;stroke-miterlimit:4;stroke-dasharray:none;stroke-opacity:1"
         id="path5686" />
      <path
         d="m 151.06602,391.45037 q -7.36907,-0.22107 -8.91657,-0.22107 -1.25275,0 -8.84289,0.22107 l 0,-2.43179 q 1.06852,0.0368 1.76858,0.0368 2.32126,0 3.1687,-0.44214 1.2159,-0.70006 1.2159,-2.80025 l 0,-19.12274 q 0,-8.3639 -5.82157,-8.3639 -4.7899,0 -7.84806,4.01615 -2.80025,3.68453 -2.80025,8.62181 l 0,14.73815 q 0,1.40012 0.36845,2.13703 0.73691,1.43697 5.71103,1.17905 l 0,2.43179 q -7.33222,-0.22107 -8.80604,-0.22107 -1.25274,0 -8.84288,0.22107 l 0,-2.43179 q 1.06851,0.0368 1.73173,0.0368 2.50548,0 3.31608,-0.51583 1.06852,-0.70006 1.06852,-3.05817 l 0,-21.14923 q 0,-3.20555 -1.6212,-4.01615 -0.92113,-0.44214 -4.49513,-0.36845 l 0,-2.50548 11.09045,-0.84745 0,8.29021 q 3.72138,-8.29021 11.64313,-8.29021 10.75885,0 10.75885,11.64314 l 0,18.42268 q 0,2.65286 6.15317,2.3581 l 0,2.43179 z"
         style="font-style:normal;font-variant:normal;font-weight:normal;font-stretch:semi-condensed;font-size:75.45929718px;font-family:Symbola;-inkscape-font-specification:'Symbola Semi-Condensed';fill:none;stroke:#000000;stroke-width:6.20000029;stroke-miterlimit:4;stroke-dasharray:none;stroke-opacity:1"
         id="path5688" />
      <path
         d="m 190.89586,359.57914 q 0,2.3581 -2.28442,2.3581 -2.28441,0 -2.28441,-2.24757 0,-1.62119 1.25274,-2.17387 -0.3316,-0.0737 -0.7369,-0.0737 -3.83192,0 -7.11116,3.09501 3.20555,2.98447 3.20555,7.62699 0,4.93727 -3.9793,8.32705 -3.75823,3.24239 -8.7692,3.24239 -4.34775,0 -7.81121,-2.46864 -1.32643,1.58435 -1.32643,3.68454 0,5.48995 6.7427,5.48995 0.70006,0 2.06334,-0.0368 1.36327,-0.0737 2.06334,-0.0737 8.91657,0 12.71165,2.17387 5.23204,2.98448 5.23204,8.99027 0,5.15835 -6.52163,7.99544 -5.01097,2.17388 -11.01676,2.17388 -5.85842,0 -10.90623,-2.17388 -6.52163,-2.80024 -6.52163,-7.81121 0,-2.83709 2.28441,-5.04782 2.0265,-1.9528 4.97413,-2.80024 -3.46347,-2.28442 -3.46347,-7.07431 0,-3.61085 2.4318,-6.48479 -3.72139,-3.13185 -3.72139,-8.14282 0,-4.93728 3.9793,-8.32705 3.79508,-3.20555 8.80604,-3.20555 4.75306,0 8.3639,2.83709 3.79507,-3.72138 8.3639,-3.72138 1.65804,0 2.80025,1.10536 1.17905,1.10537 1.17905,2.76341 z m -13.81701,8.54812 q 0,-9.72718 -6.89009,-9.72718 -3.75822,0 -5.63734,3.20555 -1.25274,2.13703 -1.25274,6.55848 0,9.72717 6.89008,9.72717 3.72139,0 5.6005,-3.1687 1.28959,-2.17388 1.28959,-6.59532 z m 8.58497,29.54998 q 0,-6.7427 -13.1538,-6.7427 l -7.03746,0 q -2.65287,0 -4.60567,2.02649 -1.91596,2.06334 -1.91596,4.71621 0,4.01614 4.93728,6.3374 3.9793,1.87911 8.51128,1.87911 4.49513,0 8.40074,-1.87911 4.86359,-2.3581 4.86359,-6.3374 z"
         style="font-style:normal;font-variant:normal;font-weight:normal;font-stretch:semi-condensed;font-size:75.45929718px;font-family:Symbola;-inkscape-font-specification:'Symbola Semi-Condensed';fill:none;stroke:#000000;stroke-width:6.20000029;stroke-miterlimit:4;stroke-dasharray:none;stroke-opacity:1"
         id="path5690" />
      <path
         d="m 252.24338,359.94759 q -5.23204,-0.0369 -7.33223,5.01097 l -13.8907,33.63981 q -3.72138,9.02712 -10.09563,9.02712 -2.80025,0 -4.93728,-1.76858 -2.28441,-1.91596 -2.28441,-4.64252 0,-3.35292 3.27924,-3.35292 1.43697,0 2.39495,0.92113 0.95798,0.95798 0.95798,2.3581 0,2.98448 -3.13186,3.35293 1.51066,1.40012 3.72138,1.40012 3.42662,0 5.82157,-3.38977 1.17905,-1.65804 3.1687,-6.37425 0.66322,-1.5475 1.9528,-4.67936 l -11.82736,-28.77622 q -0.81059,-1.98965 -2.57917,-2.50549 -0.95798,-0.29476 -3.75823,-0.22107 l 0,-2.50548 q 4.42144,0.29476 7.62699,0.29476 1.10536,0 8.58497,-0.29476 l 0,2.50548 q -4.42144,-0.0369 -4.42144,1.98965 0,0.70006 9.21134,22.69674 l 7.99544,-19.45435 q 0.51583,-1.25274 0.51583,-1.84227 0,-3.31608 -3.72138,-3.38977 l 0,-2.50548 q 6.26371,0.29476 6.81639,0.29476 2.54233,0 5.93211,-0.29476 l 0,2.50548 z"
         style="font-style:normal;font-variant:normal;font-weight:normal;font-stretch:semi-condensed;font-size:75.45929718px;font-family:Symbola;-inkscape-font-specification:'Symbola Semi-Condensed';fill:none;stroke:#000000;stroke-width:6.20000029;stroke-miterlimit:4;stroke-dasharray:none;stroke-opacity:1"
         id="path5692" />
      <path
         d="m 291.11524,374.5752 q 0,7.33222 -5.12151,12.56427 -5.1215,5.19519 -12.41688,5.19519 -7.22169,0 -12.3432,-5.23204 -5.08466,-5.26889 -5.08466,-12.52742 0,-7.40592 5.01097,-12.89588 5.15835,-5.60049 12.49058,-5.60049 7.29538,0 12.45373,5.63734 5.01097,5.48996 5.01097,12.85903 z m -6.59532,-0.66322 q 0,-7.5533 -2.06334,-10.94307 -3.09501,-5.08466 -8.87973,-5.08466 -6.04264,0 -9.02711,5.26889 -1.87912,3.31608 -1.87912,10.75884 0,7.62699 2.0265,11.1273 3.05816,5.30573 8.95342,5.30573 6.15317,0 9.13765,-5.82156 1.73173,-3.38978 1.73173,-10.61147 z"
         style="font-style:normal;font-variant:normal;font-weight:normal;font-stretch:semi-condensed;font-size:75.45929718px;font-family:Symbola;-inkscape-font-specification:'Symbola Semi-Condensed';fill:none;stroke:#000000;stroke-width:6.20000029;stroke-miterlimit:4;stroke-dasharray:none;stroke-opacity:1"
         id="path5694" />
      <path
         d="m 334.70331,391.45037 -11.34837,0.88429 0,-7.11115 q -3.27924,7.11115 -10.16932,7.11115 -7.07431,0 -9.69033,-3.24239 -2.32126,-2.87394 -2.32126,-10.13247 l 0,-13.81701 q 0,-3.75823 -1.28959,-4.64252 -0.88429,-0.58953 -4.82674,-0.55268 l 0,-2.50548 11.56944,-0.84745 0,26.16021 q 0,4.20037 1.32644,5.89526 1.5475,1.91595 5.60049,1.91595 4.56882,0 7.22169,-3.97929 2.32126,-3.46347 2.32126,-8.25337 l 0,-14.00123 q 0,-3.20555 -1.65804,-4.01615 -0.92114,-0.44214 -4.49514,-0.36845 l 0,-2.50548 11.60629,-0.84745 0,28.03932 q 0,3.20555 1.65804,4.01615 0.92114,0.44214 4.49514,0.36845 l 0,2.43179 z"
         style="font-style:normal;font-variant:normal;font-weight:normal;font-stretch:semi-condensed;font-size:75.45929718px;font-family:Symbola;-inkscape-font-specification:'Symbola Semi-Condensed';fill:none;stroke:#000000;stroke-width:6.20000029;stroke-miterlimit:4;stroke-dasharray:none;stroke-opacity:1"
         id="path5696" />
      <path
         d="m 364.99018,361.4214 q 0,1.47382 -0.95798,2.46864 -0.92114,0.99483 -2.39495,0.99483 -1.43697,0 -2.43179,-0.95798 -0.95798,-0.95798 -0.95798,-2.43179 0,-2.35811 1.76857,-3.09502 -0.22107,-0.0737 -0.51583,-0.0737 -5.01097,0 -7.62699,5.15835 -2.0265,4.08984 -2.0265,9.65349 l 0,12.74849 q 0,2.28442 2.06334,2.87394 0.84745,0.25792 3.9793,0.25792 l 1.6212,0 0,2.43179 q -2.98448,-0.22107 -5.41627,-0.22107 l -6.41109,0 q -1.40013,0 -3.574,0.0737 -2.94763,0.14738 -3.574,0.14738 l 0,-2.43179 q 0.4053,0 1.2159,0.0368 0.81059,0.0368 1.25274,0.0368 3.68453,0 3.68453,-3.61085 l 0,-21.14923 q 0,-3.20555 -1.65804,-4.01615 -0.88429,-0.4053 -4.49513,-0.36845 l 0,-2.50548 10.94307,-0.84745 0,8.65866 q 2.80025,-8.65866 9.65348,-8.65866 2.21073,0 3.94246,1.28959 1.91596,1.40012 1.91596,3.53715 z"
         style="font-style:normal;font-variant:normal;font-weight:normal;font-stretch:semi-condensed;font-size:75.45929718px;font-family:Symbola;-inkscape-font-specification:'Symbola Semi-Condensed';fill:none;stroke:#000000;stroke-width:6.20000029;stroke-miterlimit:4;stroke-dasharray:none;stroke-opacity:1"
         id="path5698" />
      <path
         d="m 399.40374,344.43569 q 0,1.76858 -1.25274,3.02132 -1.21589,1.2159 -2.98447,1.2159 -1.69489,0 -2.91079,-1.25274 -1.21589,-1.28959 -1.21589,-2.98448 0,-1.65804 1.21589,-2.91078 1.25275,-1.25274 2.91079,-1.25274 1.76858,0 2.98447,1.21589 1.25274,1.2159 1.25274,2.94763 z m 5.1952,47.01468 q -7.44276,-0.22107 -8.21651,-0.22107 -1.51066,0 -8.62182,0.22107 l 0,-2.43179 q 1.87911,0.0368 1.6212,0.0368 2.43179,0 3.27923,-0.47899 1.2159,-0.66321 1.2159,-2.91078 l 0,-21.444 q 0,-3.13185 -1.51066,-3.86876 -0.84744,-0.44215 -4.31091,-0.4053 l 0,-2.50548 10.97992,-0.84745 0,29.54998 q 0,2.17388 1.87911,2.68971 0.88429,0.25792 3.68454,0.18423 l 0,2.43179 z"
         style="font-style:normal;font-variant:normal;font-weight:normal;font-stretch:semi-condensed;font-size:75.45929718px;font-family:Symbola;-inkscape-font-specification:'Symbola Semi-Condensed';fill:none;stroke:#000000;stroke-width:6.20000029;stroke-miterlimit:4;stroke-dasharray:none;stroke-opacity:1"
         id="path5700" />
      <path
         d="m 447.33957,391.45037 -11.5326,0.88429 0,-5.23204 q -4.08984,5.23204 -10.57462,5.23204 -7.07431,0 -11.9379,-5.41627 -4.75305,-5.23204 -4.75305,-12.38004 0,-7.29538 5.12151,-12.60111 5.15835,-5.34258 12.41688,-5.34258 6.0058,0 9.94825,4.90044 l 0,-17.09625 q 0,-3.24239 -1.73173,-4.01615 -0.92113,-0.44214 -4.42144,-0.3316 l 0,-2.46864 11.34837,-0.84745 0,47.89897 q 0,3.24239 1.69488,4.05299 0.92114,0.44215 4.42145,0.33161 l 0,2.43179 z m -11.5326,-9.32187 0,-16.54357 q 0,-1.17905 -0.88429,-2.50548 -3.20555,-4.75306 -8.51128,-4.75306 -5.67418,0 -8.95342,5.08466 -2.39495,3.68454 -2.39495,11.16415 0,7.25853 2.24757,10.90622 3.13185,5.08466 8.25336,5.08466 3.42662,0 6.70586,-2.46864 3.53715,-2.65286 3.53715,-5.96894 z"
         style="font-style:normal;font-variant:normal;font-weight:normal;font-stretch:semi-condensed;font-size:75.45929718px;font-family:Symbola;-inkscape-font-specification:'Symbola Semi-Condensed';fill:none;stroke:#000000;stroke-width:6.20000029;stroke-miterlimit:4;stroke-dasharray:none;stroke-opacity:1"
         id="path5702" />
      <path
         d="m 481.78996,382.09165 q 0,1.10536 -1.28959,3.31608 -4.05299,6.92693 -11.8642,6.92693 -7.29538,0 -12.38004,-5.48996 -4.97413,-5.37942 -4.97413,-12.74849 0,-7.148 4.56883,-12.45373 4.7899,-5.56365 11.82736,-5.56365 6.63216,0 10.46408,4.53198 3.64769,4.23721 3.64769,10.97991 0,2.0265 -1.9528,2.0265 l -22.03353,0 q 0,7.62699 2.35811,11.42206 3.31608,5.30573 8.91657,5.30573 7.29538,0 10.68516,-8.14282 0.44214,-1.06852 1.03167,-1.06852 0.99482,0 0.99482,0.95798 z m -5.19519,-10.86938 q -0.0737,-5.15835 -1.91596,-8.7692 -2.39495,-4.56882 -7.00062,-4.56882 -1.51066,0 -3.31608,0.84744 -5.96895,2.8371 -6.44794,12.49058 l 18.6806,0 z"
         style="font-style:normal;font-variant:normal;font-weight:normal;font-stretch:semi-condensed;font-size:75.45929718px;font-family:Symbola;-inkscape-font-specification:'Symbola Semi-Condensed';fill:none;stroke:#000000;stroke-width:6.20000029;stroke-miterlimit:4;stroke-dasharray:none;stroke-opacity:1"
         id="path5704" />
      <path
         d="m 521.17765,384.44975 q 0,3.05817 -1.69489,5.15835 -1.80542,2.28442 -4.78989,2.28442 -2.54233,0 -4.27406,-1.98965 -1.6212,-1.80543 -1.87912,-4.42145 -1.28959,3.13186 -4.08983,5.01097 -2.80025,1.84227 -6.22687,1.84227 -4.7162,0 -8.21651,-1.84227 -4.3846,-2.28441 -4.3846,-6.55847 0,-6.59532 7.84806,-10.27986 4.82674,-2.24756 14.51707,-2.80024 l 0,-2.87394 q 0,-4.05299 -2.10018,-6.92693 -2.35811,-3.1687 -6.26372,-3.1687 -5.67418,0 -8.51127,3.61085 1.69488,0 2.87393,0.99482 1.17906,0.95798 1.17906,2.61602 0,1.54751 -1.06852,2.57918 -1.03167,1.03167 -2.61602,1.03167 -3.61084,0 -3.61084,-3.6477 0,-4.16352 4.01614,-6.7427 3.50031,-2.24756 7.92175,-2.24756 6.7427,0 10.79569,4.38459 1.84227,1.98965 2.4318,4.31091 0.40529,1.65804 0.40529,4.97413 l 0,15.73296 q 0,1.47382 0.70007,2.61602 0.81059,1.36328 2.17387,1.36328 2.91079,0 2.91079,-6.44793 0,-1.03167 -0.0737,-2.94763 l 2.02649,0 0,4.38459 z m -13.19064,-4.05299 0,-7.8849 q -6.30055,0.22107 -10.722,2.61602 -5.60049,3.02132 -5.60049,8.6955 0,2.87394 2.06334,4.82675 2.10018,1.91595 5.01097,1.91595 4.08983,0 6.7427,-3.09501 2.50548,-2.91078 2.50548,-7.07431 z"
         style="font-style:normal;font-variant:normal;font-weight:normal;font-stretch:semi-condensed;font-size:75.45929718px;font-family:Symbola;-inkscape-font-specification:'Symbola Semi-Condensed';fill:none;stroke:#000000;stroke-width:6.20000029;stroke-miterlimit:4;stroke-dasharray:none;stroke-opacity:1"
         id="path5706" />
      <path
         d="m 550.87501,381.35474 q 0,5.37943 -3.75822,8.32706 -3.38978,2.65286 -8.91658,2.65286 -5.15835,0 -8.73235,-3.42662 -2.83709,3.42662 -3.53715,3.42662 -0.8106,0 -0.8106,-1.2159 l 0,-11.8642 q 0,-1.17905 0.99482,-1.17905 0.77376,0 1.10536,1.28958 1.36328,5.37943 3.38978,7.88491 2.68971,3.31608 7.59014,3.31608 3.79507,0 6.15318,-1.65804 2.72655,-1.91596 2.72655,-5.5268 0,-5.41627 -8.21651,-7.18485 -4.71621,-1.03167 -5.45312,-1.21589 -3.02132,-0.92114 -4.93727,-2.46864 -3.35293,-2.7634 -3.35293,-6.7427 0,-4.93728 3.9793,-7.51646 3.38977,-2.17387 8.58497,-2.17387 4.34775,0 7.40591,2.24756 2.21072,-2.24756 2.94763,-2.24756 0.88429,0 0.88429,1.21589 l 0,9.35873 q 0,1.28958 -1.06851,1.28958 -0.84745,0 -1.14221,-1.58435 -0.11054,-1.10536 -0.22107,-2.21072 -0.58953,-3.20555 -3.09501,-4.93728 -2.32126,-1.62119 -5.71103,-1.62119 -3.46347,0 -5.82157,1.25274 -2.98448,1.58435 -2.98448,4.75305 0,3.1687 3.46347,4.7899 1.76858,0.8106 6.22686,1.69488 6.26372,1.2159 8.95343,3.75823 3.35292,3.1687 3.35292,7.51645 z"
         style="font-style:normal;font-variant:normal;font-weight:normal;font-stretch:semi-condensed;font-size:75.45929718px;font-family:Symbola;-inkscape-font-specification:'Symbola Semi-Condensed';fill:none;stroke:#000000;stroke-width:6.20000029;stroke-miterlimit:4;stroke-dasharray:none;stroke-opacity:1"
         id="path5708" />
      <path
         d="m 598.25818,381.68635 q 0,4.16353 -1.76858,7.11116 -2.13703,3.53715 -6.04264,3.53715 -4.86358,0 -7.51645,-2.87394 -2.61602,-2.87393 -2.61602,-7.77437 l 0,-21.73876 -6.70586,0 0,-1.80542 q 5.23204,-0.18423 7.92176,-5.34258 2.17387,-4.08983 2.24756,-9.87456 l 1.95281,0 0,14.51708 11.23783,0 0,2.50548 -11.23783,0 0,21.88614 q 0,8.51128 5.30573,8.51128 5.34258,0 5.34258,-10.68515 0,-0.66322 -0.0368,-2.46864 l 1.91596,0 0,4.49513 z"
         style="font-style:normal;font-variant:normal;font-weight:normal;font-stretch:semi-condensed;font-size:75.45929718px;font-family:Symbola;-inkscape-font-specification:'Symbola Semi-Condensed';fill:none;stroke:#000000;stroke-width:6.20000029;stroke-miterlimit:4;stroke-dasharray:none;stroke-opacity:1"
         id="path5710" />
      <path
         d="m 637.16686,374.5752 q 0,7.33222 -5.1215,12.56427 -5.12151,5.19519 -12.41689,5.19519 -7.22169,0 -12.3432,-5.23204 -5.08466,-5.26889 -5.08466,-12.52742 0,-7.40592 5.01097,-12.89588 5.15835,-5.60049 12.49058,-5.60049 7.29538,0 12.45373,5.63734 5.01097,5.48996 5.01097,12.85903 z m -6.59532,-0.66322 q 0,-7.5533 -2.06334,-10.94307 -3.09501,-5.08466 -8.87973,-5.08466 -6.04264,0 -9.02711,5.26889 -1.87912,3.31608 -1.87912,10.75884 0,7.62699 2.0265,11.1273 3.05816,5.30573 8.95342,5.30573 6.15317,0 9.13765,-5.82156 1.73173,-3.38978 1.73173,-10.61147 z"
         style="font-style:normal;font-variant:normal;font-weight:normal;font-stretch:semi-condensed;font-size:75.45929718px;font-family:Symbola;-inkscape-font-specification:'Symbola Semi-Condensed';fill:none;stroke:#000000;stroke-width:6.20000029;stroke-miterlimit:4;stroke-dasharray:none;stroke-opacity:1"
         id="path5712" />
      <path
         d="m 677.43881,391.45037 q -8.10598,-0.22107 -8.76919,-0.22107 -1.36328,0 -8.69551,0.22107 l 0,-2.43179 q 0.36846,0 1.2159,0.0368 0.84744,0.0368 1.28959,0.0368 3.61084,0 3.61084,-3.61085 l 0,-41.08257 q 0,-3.20555 -1.62119,-3.9793 -0.84745,-0.4053 -4.49514,-0.36845 l 0,-2.46864 11.27468,-0.84745 0,48.74641 q 0,1.84227 0.44215,2.46864 0.55268,0.77376 2.39494,0.99483 0.8106,0.11053 3.35293,0.0737 l 0,2.43179 z"
         style="font-style:normal;font-variant:normal;font-weight:normal;font-stretch:semi-condensed;font-size:75.45929718px;font-family:Symbola;-inkscape-font-specification:'Symbola Semi-Condensed';fill:none;stroke:#000000;stroke-width:6.20000029;stroke-miterlimit:4;stroke-dasharray:none;stroke-opacity:1"
         id="path5714" />
      <path
         d="m 692.98755,344.43569 q 0,1.76858 -1.25275,3.02132 -1.21589,1.2159 -2.98447,1.2159 -1.69489,0 -2.91078,-1.25274 -1.2159,-1.28959 -1.2159,-2.98448 0,-1.65804 1.2159,-2.91078 1.25274,-1.25274 2.91078,-1.25274 1.76858,0 2.98447,1.21589 1.25275,1.2159 1.25275,2.94763 z m 5.19519,47.01468 q -7.44276,-0.22107 -8.21651,-0.22107 -1.51066,0 -8.62182,0.22107 l 0,-2.43179 q 1.87912,0.0368 1.6212,0.0368 2.43179,0 3.27924,-0.47899 1.21589,-0.66321 1.21589,-2.91078 l 0,-21.444 q 0,-3.13185 -1.51066,-3.86876 -0.84744,-0.44215 -4.3109,-0.4053 l 0,-2.50548 10.97991,-0.84745 0,29.54998 q 0,2.17388 1.87912,2.68971 0.88428,0.25792 3.68453,0.18423 l 0,2.43179 z"
         style="font-style:normal;font-variant:normal;font-weight:normal;font-stretch:semi-condensed;font-size:75.45929718px;font-family:Symbola;-inkscape-font-specification:'Symbola Semi-Condensed';fill:none;stroke:#000000;stroke-width:6.20000029;stroke-miterlimit:4;stroke-dasharray:none;stroke-opacity:1"
         id="path5716" />
      <path
         d="m 727.65907,341.37753 q 0,3.46346 -3.50031,3.46346 -1.43697,0 -2.43179,-0.95798 -0.95798,-0.95798 -0.95798,-2.39495 0,-2.54233 2.3581,-3.35292 -1.2159,-0.55268 -2.57917,-0.55268 -3.53716,0 -5.56365,3.75822 -1.69489,3.09501 -1.69489,6.96378 l 0,9.13765 9.24818,0 0,2.50548 -9.06395,0 0,25.93913 q 0,0.77376 0.25791,1.51066 0.58953,1.69489 7.40592,1.6212 l 0,2.43179 q -2.98447,-0.22107 -5.34258,-0.22107 l -6.81639,0 q -1.32643,0 -3.42662,0.0737 -2.72655,0.14738 -3.38977,0.14738 l 0,-2.43179 q 1.03167,0.0368 1.69489,0.0368 2.3581,0 3.20554,-0.44214 1.25275,-0.66322 1.25275,-2.80025 l 0,-25.86544 -6.19002,0 0,-2.50548 6.19002,0 0,-9.06396 q 0,-5.1952 3.5003,-8.84289 3.53716,-3.64769 8.73236,-3.64769 2.65286,0 4.75305,1.40012 2.3581,1.58435 2.3581,4.08984 z"
         style="font-style:normal;font-variant:normal;font-weight:normal;font-stretch:semi-condensed;font-size:75.45929718px;font-family:Symbola;-inkscape-font-specification:'Symbola Semi-Condensed';fill:none;stroke:#000000;stroke-width:6.20000029;stroke-miterlimit:4;stroke-dasharray:none;stroke-opacity:1"
         id="path5718" />
      <path
         d="m 762.10945,382.09165 q 0,1.10536 -1.28959,3.31608 -4.05299,6.92693 -11.8642,6.92693 -7.29538,0 -12.38004,-5.48996 -4.97413,-5.37942 -4.97413,-12.74849 0,-7.148 4.56883,-12.45373 4.78989,-5.56365 11.82736,-5.56365 6.63216,0 10.46408,4.53198 3.64769,4.23721 3.64769,10.97991 0,2.0265 -1.9528,2.0265 l -22.03353,0 q 0,7.62699 2.3581,11.42206 3.31609,5.30573 8.91658,5.30573 7.29538,0 10.68516,-8.14282 0.44214,-1.06852 1.03167,-1.06852 0.99482,0 0.99482,0.95798 z m -5.1952,-10.86938 q -0.0737,-5.15835 -1.91595,-8.7692 -2.39495,-4.56882 -7.00062,-4.56882 -1.51066,0 -3.31608,0.84744 -5.96895,2.8371 -6.44794,12.49058 l 18.68059,0 z"
         style="font-style:normal;font-variant:normal;font-weight:normal;font-stretch:semi-condensed;font-size:75.45929718px;font-family:Symbola;-inkscape-font-specification:'Symbola Semi-Condensed';fill:none;stroke:#000000;stroke-width:6.20000029;stroke-miterlimit:4;stroke-dasharray:none;stroke-opacity:1"
         id="path5720" />
    </g>
  </g>
</svg>
