<?xml version="1.0" encoding="iso-8859-1"?>
<!-- Generator: Adobe Illustrator 19.0.0, SVG Export Plug-In . SVG Version: 6.00 Build 0)  -->
<svg xmlns="http://www.w3.org/2000/svg" xmlns:xlink="http://www.w3.org/1999/xlink" version="1.1" id="Capa_1" x="0px" y="0px" viewBox="0 0 512 512" style="enable-background:new 0 0 512 512;" xml:space="preserve" width="512px" height="512px">
<circle style="fill:#B9EAFF;" cx="256" cy="256" r="256"/>
<path style="fill:#35CCFF;" d="M512,256c0-8.33-0.412-16.563-1.19-24.69L356.5,77l-201,352.333l81.996,81.996  C243.608,511.766,249.776,512,256,512C397.385,512,512,397.385,512,256z"/>
<rect x="155.5" y="77" style="fill:#333333;" width="201" height="352.33"/>
<rect x="255.67" y="77" style="fill:#1A1A1A;" width="100.83" height="352.33"/>
<rect x="172" y="101.5" style="fill:#008CC3;" width="168" height="282"/>
<rect x="255.67" y="101.5" style="fill:#0074A3;" width="84.33" height="282"/>
<circle style="fill:#1A1A1A;" cx="256" cy="404.5" r="12.5"/>
<path d="M256,392c-0.113,0-0.221,0.014-0.333,0.017v24.967c0.112,0.003,0.221,0.017,0.333,0.017c6.904,0,12.5-5.597,12.5-12.5  S262.904,392,256,392z"/>
<polygon style="fill:#FFC000;" points="293.233,281.971 279.798,268.538 307.313,241.017 279.793,213.496 293.229,200.061   334.18,241.016 "/>
<g>
	<polygon style="fill:#FFDC00;" points="218.771,281.972 177.82,241.017 218.767,200.062 232.202,213.495 204.688,241.016    232.207,268.537  "/>
	
		<rect x="244.558" y="195.861" transform="matrix(-0.9509 -0.3094 0.3094 -0.9509 420.6215 551.6782)" style="fill:#FFDC00;" width="18.999" height="93.247"/>
</g>
<polygon style="fill:#FFC000;" points="259.454,195.223 255.667,206.864 255.667,268.275 277.522,201.102 "/>
<g>
</g>
<g>
</g>
<g>
</g>
<g>
</g>
<g>
</g>
<g>
</g>
<g>
</g>
<g>
</g>
<g>
</g>
<g>
</g>
<g>
</g>
<g>
</g>
<g>
</g>
<g>
</g>
<g>
</g>
</svg>
