<?xml version="1.0"?>
<svg xmlns="http://www.w3.org/2000/svg" version="1.2" baseProfile="tiny" width="800" height="694" viewBox="0 0 800 694" stroke-linecap="round" stroke-linejoin="round">
<g id="zim">
<path d="M 767.1566 112.6033 766.8374 112.8109 764.1239 115.3017 762.3681 116.0628 760.4527 116.2704 754.6268 115.786 753.7489 115.5093 751.9931 114.6098 751.1152 114.3331 737.3084 112.6725 734.7546 112.9493 732.1209 113.8487 727.2526 116.6855 724.619 117.585 723.1824 117.7234 719.0324 117.585 717.9151 117.7926 717.0372 118.2077 715.3612 119.3839 713.366 120.4218 711.0516 121.252 708.6574 121.8056 706.5026 121.8748 705.5449 121.7364 703.8689 121.0445 702.9112 120.8369 701.3948 121.1137 699.7987 121.7364 696.9256 123.4661 695.8881 124.5732 694.9304 126.0262 694.2121 127.6867 693.0948 132.53 692.5362 133.5679 691.5785 134.3981 688.3063 135.9895 686.79 137.1657 685.5131 138.6879 684.4755 140.4868 683.8371 142.355 683.1986 145.6761 682.7996 146.7139 680.4851 150.381 679.1284 152.0416 677.4524 153.4945 675.4572 154.6016 674.8986 155.0167 674.3399 155.7086 673.462 157.2308 672.9034 157.9919 671.7861 158.9605 669.1524 160.4827 668.0351 161.313 667.1572 162.766 666.9178 164.6341 667.1572 166.5022 667.4764 168.232 667.6361 170.9996 666.5986 173.2829 665.0024 175.4277 656.3033 183.6613 654.6274 186.2214 654.3879 187.1208 652.5524 188.7814 643.2946 193.5555 642.8158 194.109 641.6985 195.908 640.661 197.9145 640.0225 198.8139 639.3042 199.6442 638.7456 199.4366 638.0273 199.1599 637.4686 199.1599 636.3513 199.921 631.0042 204.9026 629.8869 205.7329 628.7696 206.2172 625.258 204.8334 624.0609 205.1794 621.8263 206.3556 620.8686 206.5632 620.1503 205.7329 619.6715 204.7643 619.3522 203.6572 619.1926 202.6194 619.3522 201.5123 622.784 192.8636 623.0234 192.2409 622.9436 191.6182 622.1455 191.4106 606.0243 190.096 604.6676 190.7879 603.3108 192.0333 601.7147 195.3544 599.5599 197.7069 599.4002 198.2604 600.0387 199.575 600.757 199.9902 601.3954 200.0593 601.6349 200.8896 601.7147 201.7199 599.7195 210.2303 599.4002 214.6584 598.6022 216.2498 597.8839 216.8725 597.2454 217.2184 596.607 217.3568 594.6916 217.3568 593.7339 217.7028 592.4569 217.8411 591.4992 217.8411 591.0204 217.7028 590.4617 217.3568 588.7858 215.9038 585.9925 211.4065 584.0771 210.7146 583.4386 211.0605 582.8002 211.6832 582.3213 212.306 581.6829 212.7903 581.0444 212.7903 580.3261 212.4443 578.9694 211.5449 574.1809 209.054 568.5146 206.9091 567.5569 206.2864 567.2376 205.6637 567.2376 204.6951 567.3972 203.934 568.1953 201.9967 568.5146 200.1977 568.3549 199.7826 567.7963 199.6442 553.4308 199.7134 553.0318 199.5058 552.4731 199.0907 552.4731 196.669 553.7501 188.1587 553.6703 186.7749 553.5107 185.1143 552.1539 179.3716 552.3933 178.6797 552.553 178.1261 554.0693 175.9813 557.9001 168.9239 557.9799 168.3704 557.9799 167.886 557.5809 167.3325 557.102 166.9866 556.703 166.5714 556.6232 166.1563 556.9424 165.6028 557.3414 165.1876 557.7405 164.8417 559.2568 163.4579 560.6136 162.0049 561.8107 160.2752 562.0501 159.86 562.4491 158.8222 563.5665 150.4502 563.5665 149.7583 563.4866 149.2048 562.928 148.6512 562.3693 148.3745 561.1722 148.0285 560.6136 147.8902 559.9751 147.8902 559.4962 148.0285 559.0174 148.2361 558.1395 148.7896 557.6607 149.0664 557.2616 149.0664 556.8626 148.7204 556.703 147.6826 556.3837 147.0599 555.8251 146.6447 555.2664 146.7139 554.7078 146.9215 553.351 147.6826 552.1539 148.5821 551.6751 148.7204 551.1164 148.7204 550.6376 148.5129 550.2385 148.2361 549.7597 148.0977 549.1212 148.0285 546.5674 148.2361 545.9289 148.2361 545.3702 148.0977 544.9712 147.821 544.652 147.3366 544.2529 145.2609 544.1731 142.6317 544.1731 142.2858 544.5722 142.009 544.9712 141.8014 545.3702 141.5247 545.6895 141.2479 545.7693 140.7636 545.3702 140.2101 545.051 139.7949 543.375 138.4803 543.0558 138.1344 542.8164 137.7192 542.577 136.889 541.9385 127.8943 542.0981 127.2716 542.1779 126.6489 542.4173 126.0953 542.6568 125.6802 544.2529 123.6737 544.7318 122.705 544.8914 122.0823 544.8116 121.3212 544.5722 120.491 543.8539 119.1764 543.375 118.4845 542.8164 118.0693 542.3375 117.7926 541.7789 117.585 541.3 117.3082 540.901 116.9623 541.1404 116.4088 541.3 115.9244 541.5395 115.3017 541.4596 114.6098 539.9433 111.2195 539.6241 110.9428 539.3846 110.8044 538.5866 110.3892 535.3144 108.5211 534.7558 108.3135 533.5587 108.106 533.0798 107.8984 532.2019 107.2757 531.7231 106.9989 530.0471 106.3762 529.6481 106.0995 529.249 105.6151 528.4509 104.093 527.4932 102.64 527.3336 101.9481 527.2538 101.0486 527.9721 96.7588 528.85 94.4064 529.0894 93.922 529.6481 93.0226 530.1269 91.9847 530.7654 88.802 531.0048 86.242 531.1644 85.8268 531.5635 84.9273 532.8404 82.6441 533.0798 82.0906 533.0798 81.2603 532.9202 80.0841 532.2019 77.8008 531.7231 76.5554 530.925 75.1716 530.2067 74.8256 529.4884 74.6181 523.6625 74.964 523.1836 74.8256 522.7048 74.6181 522.4653 74.4105 520.6298 72.4732 520.3105 71.7813 519.3528 69.0829 518.9538 68.2526 518.4749 67.7683 517.8365 67.5607 516.4797 67.4223 515.8413 67.4223 512.1701 67.8374 511.1326 68.2526 510.7336 68.5293 510.4143 68.9445 510.1749 69.4288 510.0951 69.9823 510.1749 70.605 510.6538 72.6807 510.7336 73.3034 510.574 73.7878 510.3345 74.2721 510.0153 74.6872 509.6961 75.1024 509.2172 75.3791 508.8182 75.5867 506.5038 76.071 506.0249 76.3478 505.6259 76.6246 504.9874 77.4548 504.6682 77.8008 504.1893 78.0084 503.6307 77.9392 501.396 77.4548 500.7576 77.4548 500.1989 77.524 499.1614 77.9392 498.7624 78.2159 498.4431 78.5619 498.2037 79.0462 497.7249 80.1532 497.4854 80.5684 497.0864 80.8451 496.5278 80.9143 495.9691 80.8451 494.772 80.4992 494.2931 80.2916 493.8143 80.0149 493.5749 79.4613 493.7345 78.4235 495.4902 74.4797 496.1287 73.5802 496.6076 73.0959 497.8845 72.2656 498.2037 71.8505 498.523 71.2277 498.6826 70.3975 498.6826 69.0137 498.2037 65.6926 498.2037 65.0698 498.3633 64.2396 498.6826 63.4093 499.9595 61.4028 500.4383 60.9185 503.072 59.2579 503.3912 58.8428 503.6307 58.22 503.5509 57.2514 503.3114 56.6287 502.8326 56.3519 502.2739 56.2827 501.7153 56.3519 501.1566 56.4211 500.6778 56.2827 500.2787 56.006 499.8797 55.66 499.2412 54.8297 499.1614 54.3454 499.1614 53.7227 499.1614 53.1692 499.0816 52.8232 499.0018 52.5465 498.2835 51.9238 497.9643 51.5086 497.7249 51.0935 497.5653 50.6092 497.3258 49.5021 497.3258 48.6027 497.7249 45.9734 497.6451 45.074 497.3258 44.5204 495.171 43.7594 494.6922 43.4826 493.8941 42.7907 493.6547 42.3756 493.4152 41.9604 493.2556 41.4069 493.1758 40.8534 493.2556 40.4382 493.4152 40.1615 493.8143 39.8155 520.3903 17.5364 521.1884 16.2218 521.5875 14.7688 520.7894 12.5547 520.3105 11.5169 519.0336 10.1331 518.6346 8.6801 518.5548 4.5979 518.874 3.4908 522.0663 4.8054 525.0192 4.7363 529.0894 3.1449 529.1692 11.3785 529.3288 21.1343 529.5683 33.3117 529.7279 40.4382 541.1404 40.2999 548.4827 40.2999 565.0828 40.1615 576.0963 40.0923 580.6454 40.9918 584.7156 43.8285 586.3915 45.4891 587.9079 46.5961 589.5839 46.8729 591.8983 45.9042 593.0156 44.8664 594.931 42.8599 596.4473 42.0988 597.3252 42.3064 598.1233 42.8599 598.9214 42.9291 599.7195 41.4761 602.2733 39.9539 606.8224 40.2999 617.1176 42.6523 619.1128 43.4134 620.7888 44.5204 622.2253 46.3194 624.1407 49.7789 625.4176 51.1627 627.4128 52.2005 628.3705 52.8924 628.8494 53.8611 629.1686 54.8297 629.8071 55.4525 630.2061 55.5216 631.0042 55.3833 631.4032 55.3141 631.8821 55.5908 631.8821 56.0752 631.7225 56.5595 631.8821 56.8363 633.8773 57.113 636.1119 57.113 638.1071 57.3898 639.6235 58.4276 643.6139 60.3649 660.613 61.4028 663.1668 62.5098 665.9601 64.7239 672.1053 71.2969 674.1005 72.8883 678.3303 75.0332 679.6073 76.0019 680.4851 77.8008 680.964 81.7446 681.8419 83.2668 683.5179 84.0279 694.0525 85.6884 714.2439 85.2041 722.2247 86.3803 732.7594 90.4625 748.9604 96.7588 761.171 101.4637 762.2883 102.5016 762.7672 103.9546 762.847 106.307 763.8845 110.32 766.598 112.3266 767.1566 112.6033 Z" id="MC"/>
<path d="M 578.3309 239.0824 581.0444 238.5289 584.3963 237.4219 584.7954 236.9376 584.955 236.4532 584.6358 235.4154 584.1569 234.7235 583.6781 234.1008 581.5233 232.9937 580.9646 232.5786 580.7252 231.9559 580.8848 231.0564 581.5233 229.7418 581.5233 228.5656 581.2838 227.9429 580.8848 227.4585 580.5656 226.905 580.5656 226.0747 580.805 224.8985 581.0444 224.2066 581.5233 223.7915 582.4809 223.5839 583.5983 223.0996 584.7954 222.2693 587.5887 219.0866 588.7858 215.9038 590.4617 217.3568 591.0204 217.7028 591.4992 217.8411 592.4569 217.8411 593.7339 217.7028 594.6916 217.3568 596.607 217.3568 597.2454 217.2184 597.8839 216.8725 598.6022 216.2498 599.4002 214.6584 599.7195 210.2303 601.5551 210.3686 602.0339 210.507 602.3531 210.853 602.5926 211.6832 602.832 212.4443 603.3108 213.067 604.0291 213.413 605.8647 213.7589 609.2166 213.6206 610.1743 213.8973 610.6532 214.3817 611.0522 215.4887 611.132 216.5957 611.0522 217.7028 610.6532 219.4325 610.6532 220.1244 610.8128 220.8163 611.2118 221.5082 611.5311 222.0617 611.6907 222.7536 611.6109 223.8607 611.6109 224.4834 611.8503 225.5212 612.1695 226.4207 613.1272 228.358 613.2868 228.8423 613.2868 229.1883 613.0474 229.7418 612.5686 230.3645 611.6109 231.3332 611.2118 232.0251 611.0522 232.717 610.8926 233.7548 610.4137 234.3775 609.5359 234.9311 605.7849 236.5224 605.6253 236.7992 605.6253 237.1451 605.9445 238.2522 606.0243 238.8749 606.1041 239.9819 606.1041 240.4662 605.7051 242.196 604.6676 243.303 603.231 243.9257 602.9118 244.6868 602.832 245.1712 603.1512 245.5863 604.1089 246.2782 604.1887 246.555 603.8695 246.9701 602.1137 248.2155 601.5551 248.4231 600.2781 248.5615 599.6397 248.6998 599.081 248.9766 598.2031 249.5301 597.8839 249.6685 597.4848 249.7377 597.0858 249.8069 596.4473 249.6685 595.5695 249.2534 593.255 247.316 588.2271 244.2025 584.3165 242.6111 583.0396 242.2652 581.0444 241.5041 578.3309 239.0824 Z" id="HA"/>
<path d="M 309.8569 184.0765 309.6175 187.8127 309.378 188.7122 308.58 190.7879 308.5002 192.1025 308.3405 192.5868 308.1011 192.9328 307.7819 193.2787 307.7021 193.2787 307.7021 193.3479 307.1434 195.1469 306.4251 196.8074 306.2655 197.3609 306.2655 198.122 306.3453 198.9523 306.6646 200.2669 306.7444 201.0972 306.6646 201.7891 306.505 202.2734 305.9463 203.1037 305.7069 203.588 305.1482 206.0097 304.5896 207.6702 304.5896 208.3621 305.228 210.7146 305.3078 211.5449 305.1482 212.1676 302.3549 215.0736 300.7588 216.3882 300.0405 217.1493 299.6415 217.426 299.2424 217.5644 298.7636 217.426 298.4443 217.1493 298.0453 216.8033 297.5665 216.5957 297.0876 216.5265 296.6088 216.6649 296.2097 216.9417 293.4962 219.2249 293.3366 219.7785 293.0174 220.9547 292.5386 221.9925 292.4587 222.6153 292.4587 223.3763 293.6559 228.1504 293.5761 229.1191 293.4962 229.811 292.2193 232.1635 291.3414 234.3083 291.3414 234.8619 291.3414 235.623 291.5011 236.5916 291.4212 237.2143 291.102 237.6295 290.6232 237.9062 290.2241 238.1138 289.8251 238.4597 289.5059 238.8749 289.3462 239.3592 289.1068 240.6046 288.8674 241.1581 288.628 241.5733 288.3087 241.9884 287.9097 242.3344 286.2337 243.5106 285.9145 243.8566 285.5953 244.2717 285.5953 244.3409 285.5155 244.5485 285.5155 245.0328 285.5953 245.5863 286.1539 247.2469 286.3933 248.6307 286.6328 249.3226 287.1116 249.8069 288.0693 250.4296 288.7078 250.4988 289.3462 250.3604 289.8251 250.222 290.3039 250.0836 290.8626 250.222 291.2616 250.568 291.5011 251.3291 291.4212 253.4048 291.5809 254.581 292.1395 256.034 292.2991 256.5183 292.2193 257.141 292.0597 257.6253 291.7405 258.1097 291.3414 258.4556 290.5434 259.0091 290.1443 259.3551 289.8251 259.7702 289.6655 260.2546 289.8251 260.8773 290.2241 261.5 291.2616 262.1919 292.0597 262.5378 294.2145 262.953 294.7732 263.2297 295.252 263.6449 295.5713 264.406 295.3318 264.7519 294.853 264.8903 289.3462 265.513 286.553 266.1357 285.9943 266.4125 285.5953 266.966 285.1962 296.856 285.3558 298.309 285.7549 299.6928 286.8722 300.6615 287.6703 301.1458 288.3885 301.4225 289.1068 301.4917 290.3837 301.5609 295.8107 300.869 296.4491 300.869 297.0078 301.0074 298.604 301.6993 299.8809 301.9761 304.0309 302.1836 305.3876 302.4604 307.2232 302.9447 317.4386 303.2907 318.7156 303.4982 319.354 303.5674 320.631 303.4982 322.9454 303.0831 328.2127 303.0831 330.2079 303.4291 331.5647 303.4982 335.7945 303.2907 336.6724 303.1523 339.8647 302.1836 340.5032 302.1144 346.9676 302.1144 347.4464 302.0453 349.282 301.9069 350.4791 301.6993 352.5542 301.0074 353.1926 300.9382 353.8311 300.9382 354.4695 301.0074 355.0282 301.215 356.0657 301.6301 357.9811 302.1836 359.4176 302.322 397.5659 301.9761 398.5236 302.1144 399.2418 302.5296 400.5986 304.9512 401.0774 306.1275 401.0774 307.0269 400.5986 308.134 399.7207 308.8259 381.8437 316.0216 376.2571 317.3362 375.2994 317.7514 374.5812 318.6508 374.5014 320.519 380.4869 346.3268 380.886 347.503 381.4446 348.6793 382.3225 349.4403 382.961 349.7863 384.2379 350.2706 384.9562 350.9625 385.7543 352.0004 387.9091 355.5291 388.3081 356.4285 388.3081 357.328 388.1485 358.0891 388.0687 358.7118 387.7495 359.2653 387.111 360.0264 386.6322 360.5107 386.3927 360.9951 386.3129 361.4794 386.3129 364.3854 386.3129 364.5929 386.4725 365.0081 387.3504 366.2535 388.5476 367.0838 397.8053 376.5628 398.4437 377.5314 398.6832 378.2233 398.6832 379.4688 398.4437 380.2298 396.2091 383.6202 396.688 384.3812 409.4572 396.0051 408.5794 397.8041 408.1005 398.3576 407.063 399.0495 406.2649 399.1879 405.387 399.0495 404.6688 398.6344 404.1899 398.2192 403.2322 397.6657 402.1947 397.3198 398.8428 396.697 398.2043 396.697 397.486 396.7662 396.8476 396.9046 396.2889 397.3198 395.9697 397.8733 395.9697 398.9803 396.2889 399.7414 396.8476 400.4333 398.3639 401.7479 399.0024 402.5782 399.4014 403.3393 399.4812 404.1004 399.4812 404.9306 399.0822 406.522 398.6034 407.4215 397.7255 408.5285 393.1764 412.2648 392.7774 412.7491 392.538 413.3026 392.7774 414.0637 393.2562 414.6864 394.613 415.9318 395.3312 416.4854 396.1293 416.9005 396.688 417.454 397.0072 418.2151 397.1668 419.3221 397.0072 423.4043 396.8476 424.2346 396.4485 425.7568 395.6505 427.6941 395.5707 428.3168 395.3312 429.0779 394.613 429.9082 392.2985 431.5688 390.9418 432.0531 389.7447 432.3298 383.6793 431.2228 383.1206 431.2228 382.8014 431.5688 382.7216 432.2607 382.8812 432.8142 383.2802 433.852 384.7168 439.1105 385.6745 441.3937 385.7543 441.7397 385.6745 442.1548 385.435 442.6391 383.6793 445.3375 382.4821 446.3062 375.2994 450.1116 370.91 451.9106 370.4311 452.1182 370.1119 452.6025 369.7927 453.3636 369.7927 454.0555 369.8725 454.609 370.511 456.6155 370.511 457.169 370.1917 457.8609 360.2157 469.2772 358.3003 471.007 356.6244 472.1832 355.9061 473.7054 353.2724 476.473 351.8359 476.6114 351.1176 476.473 345.8503 472.46 352.634 471.007 354.3099 470.3151 355.0282 469.7616 355.5869 469.2081 355.9859 468.5854 356.1455 468.0318 356.1455 467.5475 355.9859 467.0632 355.5869 466.648 353.5917 465.4026 353.1926 465.0567 352.8734 464.6415 352.8734 464.1572 352.9532 463.7421 353.033 463.4653 353.6715 462.2199 353.9907 461.528 354.1503 460.8361 354.1503 460.3518 353.7513 460.0058 353.1128 459.7982 352.3945 459.5215 352.0753 459.1755 351.9157 458.7604 351.7561 457.5842 351.357 457.169 350.6388 457.2382 349.282 457.8609 348.5638 458.0685 347.7657 457.9993 347.1272 457.7225 346.0099 456.8923 345.5311 456.6155 344.9724 456.5463 344.4137 456.4771 344.0147 456.4079 343.7753 456.2004 343.456 455.9236 343.3762 455.6468 343.3762 455.3701 343.5359 455.0241 343.5359 453.7787 343.6955 453.2944 344.0147 452.4641 343.9349 452.1873 343.6157 452.049 342.9772 452.049 340.982 452.6717 338.7474 453.0176 338.1089 453.2944 336.832 454.3322 336.1935 454.6782 335.3954 454.6782 334.3579 454.4014 328.6118 451.4954 327.8137 451.2879 327.4146 451.2879 327.0954 451.5646 326.9358 452.049 327.0156 453.2944 328.0531 456.9614 327.9733 457.9301 327.8137 458.4836 327.4146 459.4523 327.255 460.1442 327.1752 460.9053 327.1752 462.0123 326.856 462.635 326.2175 463.1193 324.8608 463.8804 324.5416 464.2956 324.6214 464.7799 325.1002 465.2642 326.3771 465.6102 327.1752 465.7486 328.4521 465.6794 329.2502 465.7486 330.9262 466.1637 331.6445 466.2329 332.2031 466.0945 333.4002 465.6102 334.1983 465.541 334.9964 465.7486 335.7147 466.9248 336.6724 467.9626 336.9118 468.9313 335.6349 471.7681 333.0012 472.8059 319.1944 482.5617 318.556 482.7001 317.9973 482.1466 316.9598 480.1401 316.4809 478.6179 316.0819 477.58 315.8425 477.1649 314.5656 475.5735 313.4482 474.4665 313.2088 474.0514 313.0492 473.4978 312.8098 473.0135 312.4107 472.7367 311.9319 472.46 311.453 472.1832 310.9742 471.8373 310.655 471.4913 310.4155 471.0762 310.2559 470.4535 310.0165 470.0383 307.9415 468.3778 305.7867 466.2329 305.5473 465.7486 305.3876 464.5723 305.228 464.088 304.9886 463.6037 304.3501 462.7734 304.1905 462.2891 304.0309 461.6664 303.9511 461.182 303.6319 460.7669 303.2328 460.4209 302.6742 460.1442 301.2376 459.5907 300.7588 459.2447 300.3597 458.8988 300.1203 458.4836 299.6415 457.4458 299.402 457.0998 299.1626 456.8231 298.8434 456.8231 298.3645 456.9614 294.9328 458.2761 293.8953 458.4144 289.5059 458.5528 288.628 458.8988 284.877 460.6977 284.3981 460.6977 283.8395 460.4209 280.3279 455.0933 279.7693 454.5398 279.2904 454.8857 278.9712 455.6468 277.5347 459.729 276.8962 462.9118 276.6568 465.8178 276.4173 466.8556 275.9385 467.4091 272.6664 467.4091 268.5164 466.7172 267.1596 466.3021 265.9625 465.541 265.4836 465.0567 265.1644 464.5723 264.7654 464.2264 264.3663 463.8804 262.0519 462.635 260.3759 461.3896 252.7942 454.4706 251.1182 453.2944 249.2826 452.1873 248.4845 451.5646 244.8932 447.8284 242.898 444.8532 242.2595 444.2997 241.6211 443.8154 240.9028 443.1235 240.6634 442.6391 240.5038 442.1548 240.1845 440.2867 240.1047 439.0413 240.0249 438.4186 239.8653 437.865 239.5461 437.3807 239.2268 436.9656 237.8701 436.1353 237.2316 435.3742 236.9124 434.8899 236.2739 434.0596 235.4758 433.7136 234.1989 433.4369 231.4854 433.0909 229.2508 432.5374 227.7345 431.7763 224.2229 429.4931 222.3075 428.5244 220.3123 428.0401 214.8056 427.3482 214.0075 427.4174 213.2892 427.5557 212.4113 428.1093 210.9748 429.2163 210.2565 429.4239 209.3786 429.5622 207.7027 429.4239 205.8671 429.0779 204.2709 429.1471 203.1536 429.3547 202.0363 429.1471 201.3978 428.8012 200.8392 428.5244 200.2805 428.3168 199.6421 428.1784 199.0036 428.1784 196.4497 427.7633 182.2439 429.4239 180.0093 429.0087 178.2535 428.8703 176.3381 428.9395 156.3861 433.5061 154.79 434.0596 151.5179 435.7893 149.6823 436.758 149.363 436.412 147.9265 435.651 143.2976 434.3363 141.3822 433.5753 139.9457 432.1915 139.2274 429.9082 138.4293 427.9709 136.6736 426.2411 132.5236 423.7503 130.6082 422.9892 126.538 422.0897 124.7024 421.3978 122.7072 419.6681 119.9139 415.5859 117.5995 414.4097 114.4869 413.8561 113.6889 413.5102 112.4917 412.7491 112.4917 412.5415 113.21 412.1956 113.9283 410.9502 114.6466 408.8053 114.4071 407.975 113.3696 406.6604 112.5716 405.8993 111.6139 405.2074 110.4965 404.7231 104.9898 404.5847 100.4407 403.4085 96.4503 401.056 93.8965 397.3889 84.1599 371.166 81.7657 366.6686 78.733 362.794 76.1791 358.781 75.381 356.8437 74.982 354.3528 75.3012 352.2771 76.9772 348.4717 77.3762 346.396 77.2964 346.2576 74.583 338.2316 61.8137 327.2996 58.1425 319.6195 57.5041 312.2162 56.3069 308.6183 53.7531 306.4042 49.8425 304.4669 46.8896 302.0453 42.1011 295.403 40.6646 294.0192 37.2328 291.8052 30.529 285.0245 29.1722 282.9488 28.6934 281.565 27.7357 277.2753 26.8578 275.2688 23.5857 270.1487 20.3135 262.2611 18.1587 258.4556 15.0462 256.1032 11.6145 254.1658 8.8212 251.2599 4.6712 244.4101 1.7183 237.3527 1 234.9311 1 232.0251 5.15 223.3072 5.8683 223.9991 7.7039 224.8293 10.8164 227.1818 12.8116 228.0813 13.8491 228.2196 17.0414 228.0813 20.3933 229.3267 21.5107 229.4651 29.1722 229.4651 29.7309 229.6034 30.6886 230.157 31.327 230.2261 31.8857 230.0186 32.7636 229.1191 33.402 228.8423 40.2655 227.5969 45.6127 225.3137 48.1665 225.0369 49.4434 225.8672 50.6406 226.905 54.4713 227.9429 56.7858 228.9807 58.781 230.2261 59.6589 231.3332 60.6964 232.8554 65.3252 234.7927 66.682 236.5224 65.0858 237.0759 64.9262 238.5289 65.6445 240.1895 66.682 241.3657 72.907 244.2025 77.2964 244.3409 78.4137 244.2025 84.0801 241.3657 84.7984 242.1268 85.357 240.8814 87.033 240.5354 88.8686 240.4662 90.3051 240.0511 90.4647 239.636 90.2253 238.3906 90.3051 237.9754 90.9436 237.7678 92.6994 237.2835 94.4551 236.384 96.7696 235.9689 97.7273 235.4846 101.3186 232.7862 102.2763 232.371 103.1542 232.717 103.8725 233.5473 104.511 234.5159 104.9898 235.1386 105.9475 235.4846 110.6562 235.9689 111.6139 236.384 112.4119 237.0068 113.0504 237.6295 113.8485 237.7678 117.5995 237.2143 122.3081 238.0446 130.1293 242.196 134.3591 243.5106 137.0726 243.9257 138.8284 244.6176 140.1053 245.6555 141.7015 247.316 143.138 248.4923 144.7342 249.3226 150.5602 251.1215 151.9967 251.3291 153.2736 250.9831 156.1467 248.4231 157.5035 247.662 159.0996 247.2469 161.6535 246.9701 171.2304 242.7495 173.6247 243.5106 177.3756 241.089 178.4929 240.6738 183.2814 240.4662 184.7978 240.0511 187.5911 238.5981 190.6238 235.8305 194.3747 232.3018 197.8065 228.2196 197.5671 225.798 197.4872 223.3072 197.6469 222.2693 198.6844 220.7471 225.6595 193.7631 236.1143 184.63 241.5413 179.3024 244.2547 174.1823 246.3297 166.0871 248.0057 162.5584 261.8923 142.4242 265.9625 138.2036 271.2298 135.09 286.952 128.5862 287.2712 129.3473 288.9472 136.7506 288.3087 140.556 287.9895 141.5247 287.9097 142.0782 287.9097 142.2166 287.9097 142.2858 288.3087 142.7009 289.9847 143.5312 290.5434 144.1539 290.6232 145.1226 289.2664 148.6512 289.027 150.4502 288.9472 150.9345 289.1068 151.3497 289.5059 151.7648 290.3039 152.2491 291.7405 152.8026 292.2991 153.2178 292.6982 153.8405 293.177 155.0167 293.4962 155.7778 293.9751 156.3313 294.6934 156.5389 295.3318 156.5389 295.8107 156.4005 296.3693 156.3313 296.928 156.4005 298.0453 156.8157 298.5242 157.0924 298.7636 157.5076 298.7636 158.1995 298.3645 159.4449 298.2847 160.0676 298.4443 160.6903 298.6838 161.313 299.3222 162.2125 299.6415 162.9044 299.5617 163.9422 299.0828 165.0493 299.1626 165.672 299.402 166.2255 300.0405 167.0558 300.4395 167.6785 300.5194 168.5088 300.5194 170.2385 300.9982 171.9682 301.1578 173.0061 301.3972 173.8364 301.7963 174.4591 303.7915 175.9121 304.7492 177.0883 305.9463 177.7802 306.7444 178.1261 307.5425 178.3337 308.1809 179.0256 308.6598 179.5791 309.8569 184.0765 Z" id="MN"/>
<path d="M 525.6577 332.1429 531.1644 333.4575 532.9202 334.2186 534.5164 335.7407 537.0702 337.4705 541.4596 339.2694 543.4548 339.7538 544.9712 340.3765 547.126 342.2446 547.8443 342.5214 548.4827 342.6597 549.4404 342.7981 551.0366 343.1441 553.8299 343.1441 555.9847 343.4208 556.703 343.7668 557.5809 344.1819 558.2193 344.4587 558.9376 344.6662 558.6982 345.2198 557.6607 346.8111 557.5011 347.2263 557.5809 347.849 557.9001 348.8176 559.9751 352.2771 562.4491 355.3907 562.928 356.2901 563.2472 357.0512 563.4068 357.7431 563.4866 358.3658 563.4068 358.781 563.0078 358.9194 562.6088 358.9885 562.2097 359.2653 561.7309 360.7183 561.6511 361.1334 561.6511 361.4102 561.6511 361.687 561.7309 361.9637 561.8107 362.2405 561.8905 362.448 561.9703 362.6556 561.8905 362.9324 561.8107 363.2783 561.9703 363.8318 562.2895 364.1778 564.3645 365.7692 565.8809 367.3605 567.8761 369.0211 569.3924 370.82 570.7492 371.9962 571.1482 372.1346 573.7021 372.6881 576.2559 374.0719 562.0501 385.1423 561.252 385.9034 561.0126 386.4569 561.4116 386.8029 562.0501 387.0796 565.2424 387.7024 565.9607 388.1175 566.5992 388.7402 566.679 389.4321 566.2001 390.2624 564.8434 391.0235 563.7261 391.5078 563.0876 391.9921 562.928 392.8224 562.6886 401.1944 561.6511 406.5912 561.9703 408.2518 562.3693 409.7047 562.529 410.7426 562.3693 411.7804 560.6136 420.014 560.5338 420.8443 560.6136 423.3352 560.5338 423.9579 559.4164 427.1406 559.0972 429.0779 559.177 430.3925 559.3366 431.4996 559.4164 431.9147 559.5761 432.1915 559.8953 432.5374 560.2145 432.745 560.3741 433.1601 560.2145 433.6445 559.4164 434.0596 558.6982 434.3363 555.6655 435.0282 554.3885 435.0974 553.1116 434.9591 550.0789 434.198 547.2856 432.745 546.4875 432.4682 545.5299 432.399 536.8308 432.6758 535.8731 433.2293 534.7558 435.305 534.676 435.7893 534.7558 436.0661 534.9154 436.3429 534.9952 436.758 535.075 436.8964 535.1548 437.0348 535.3144 437.1731 535.3942 437.3807 535.474 437.6575 535.474 438.211 535.6337 438.5569 535.7933 438.8337 535.9529 439.0413 536.0327 439.2488 536.1125 439.4564 536.0327 439.8024 535.7135 440.2175 535.1548 440.9094 532.7606 442.6391 532.4413 443.1235 532.2817 444.0921 532.2817 444.5073 532.3615 444.8532 532.4413 444.9916 532.5212 445.2684 532.4413 445.6143 532.2019 446.1678 532.1221 446.5138 532.1221 446.7213 532.2817 446.8597 532.601 446.8597 533.3192 446.9289 532.8404 447.4132 532.2817 447.5516 531.5635 447.69 515.6817 448.3127 515.0432 448.3819 514.4845 448.5203 506.823 452.049 506.0249 452.6025 505.7057 453.156 506.2643 453.8479 506.5038 454.609 506.6634 455.9928 505.9451 459.5907 504.748 461.8047 504.1893 465.9561 504.2691 468.8621 504.5086 469.1389 505.2268 468.8621 506.9826 467.7551 508.6586 467.8935 510.3345 468.3778 511.6913 469.2081 512.2499 469.9 512.7288 471.2146 513.048 472.8751 513.2076 474.8816 513.1278 476.9573 512.3297 479.4482 512.3297 480.486 512.5692 481.1087 513.048 481.3163 513.447 481.6622 514.8038 483.9455 515.2028 484.2915 516.0009 484.9142 516.3999 485.1909 516.9586 485.3985 518.0759 485.7444 520.0711 485.8828 520.55 485.952 521.0288 486.2288 521.1884 486.6439 521.1884 487.1974 521.1086 487.751 521.1884 488.3045 521.348 488.858 521.5875 489.3423 522.2259 490.1034 522.625 490.4494 523.1038 490.7261 523.6625 490.9337 524.8596 491.1413 525.4182 491.2796 525.8173 491.6256 526.0567 492.0407 526.2961 492.5251 526.5356 493.0786 526.775 493.5629 527.174 493.9089 527.5731 494.2548 529.8077 495.7078 530.2067 496.0537 530.4461 496.4689 530.6856 497.0224 530.7654 498.2678 530.925 498.7521 531.0846 499.3057 531.1644 499.3749 535.3942 503.803 535.5539 504.3565 535.3942 505.1868 534.9952 506.2938 534.8356 507.1933 534.8356 507.8852 535.2346 508.9231 535.3942 509.4766 535.474 510.0993 535.3144 511.9674 535.3144 512.5901 535.474 513.1436 535.6337 513.6972 535.9529 514.1123 536.2721 514.5274 536.6712 514.8734 537.5491 515.4961 537.8683 515.8421 538.0279 516.3956 538.2673 517.641 538.5068 518.1945 538.6664 518.6788 538.6664 519.3015 538.5068 519.7859 537.15 522 536.9106 522.6227 536.751 523.2454 536.751 523.7989 537.2298 525.9438 537.2298 526.4973 537.0702 527.12 535.9529 529.1265 535.474 531.5482 535.1548 532.1709 534.7558 532.7936 533.6385 534.039 533.3192 534.5925 533.1596 535.146 533.7183 542.6185 533.4788 544.2099 532.6808 545.317 522.5452 554.1041 521.6673 554.2424 520.949 554.1041 520.3105 553.8965 519.5923 553.6889 517.6769 552.6511 517.1182 552.6511 516.799 552.7203 515.7615 553.4122 515.2826 553.6197 514.8038 553.8273 514.4845 553.9657 514.1653 554.2424 513.6067 554.45 512.8884 554.45 510.1749 554.0349 508.2595 554.0349 505.7057 553.6889 504.748 553.4814 504.1893 553.2046 503.7105 552.9278 503.1518 552.4435 502.5134 551.7516 502.1143 551.4057 501.5557 551.1289 499.2412 550.437 497.9643 549.7451 497.0066 548.9148 495.4104 546.9083 495.0114 546.5624 494.2931 546.2164 492.7768 545.6629 492.2979 545.3861 491.5797 544.9018 490.9412 544.3483 490.1431 543.7256 489.4248 543.3104 488.7066 542.7569 488.2277 542.2726 487.5095 541.8575 486.7912 541.6499 485.5143 541.5807 484.4767 541.7191 483.5191 542.065 482.1623 542.7569 470.1113 552.2359 468.0363 553.2046 466.8392 553.343 466.0411 553.4122 460.8536 552.7895 459.2574 552.7203 456.0651 553.1354 448.9622 554.6576 444.8122 554.5884 440.9814 553.6889 438.2679 553.5505 437.7093 553.4814 435.7141 552.8586 434.6766 552.3743 434.3573 552.0284 434.2775 551.6132 435.6343 550.5062 450.1593 541.1656 450.5584 540.612 450.8776 539.7126 456.2247 515.9112 456.2247 515.2193 455.5863 515.2193 451.2766 516.534 450.3189 516.6723 449.7603 516.3956 449.3612 515.2193 448.9622 514.3891 448.3237 513.4896 447.366 512.6593 447.0468 512.175 446.967 511.6215 447.2064 510.722 447.366 510.1685 447.6853 509.6842 448.2439 509.4766 448.9622 508.9923 449.6805 508.3695 449.6007 507.1241 450.5584 504.91 450.7978 503.803 450.7978 498.4754 451.5161 498.337 452.2343 498.5446 455.6661 500.8278 456.6238 501.1738 457.5017 500.7587 458.2199 500.1359 459.8959 498.0602 460.694 496.6073 461.492 494.6699 461.7315 493.6321 461.8113 492.8018 461.6517 489.4807 461.6517 488.6504 461.8113 488.0277 467.8767 474.1205 468.0363 473.4286 468.5152 468.5854 468.6748 468.0318 475.4584 454.4706 475.7777 453.4328 475.7777 452.4641 472.5854 447.3441 472.2661 447.2749 471.7873 447.3441 470.3507 448.2435 469.9517 448.2435 469.5527 448.1051 468.9142 445.5451 468.1959 444.4381 466.7594 444.3689 459.5767 446.0294 458.7786 445.7527 458.2199 444.5073 457.5815 441.4629 457.1824 440.3559 456.6238 440.2175 456.0651 440.3559 455.0276 440.8402 454.4689 440.9786 449.9199 441.9472 449.3612 441.878 448.7228 441.6013 444.0939 438.2802 437.39 435.0974 436.5122 434.8899 434.9958 434.7515 433.24 435.5126 431.4842 435.9969 430.4467 435.7201 429.3294 433.7136 429.0102 432.6066 428.7708 431.6379 428.7708 430.3925 429.8881 425.48 429.7285 424.6498 429.489 423.6811 428.6112 421.8822 427.9727 420.7751 425.2592 418.2151 424.3813 416.9005 423.5833 414.6172 423.5035 413.8561 423.1842 413.1642 422.7054 412.4723 420.3111 410.4658 419.9121 409.9815 419.5131 409.3588 417.1188 404.9306 416.0813 402.2322 414.6448 400.5717 409.4572 396.0051 396.688 384.3812 396.2091 383.6202 398.4437 380.2298 398.6832 379.4688 398.6832 378.2233 398.4437 377.5314 397.8053 376.5628 388.5476 367.0838 387.3504 366.2535 386.4725 365.0081 386.3129 364.5929 386.3129 364.3854 386.3129 361.4794 386.3927 360.9951 386.6322 360.5107 387.111 360.0264 387.7495 359.2653 388.0687 358.7118 388.1485 358.0891 388.3081 357.328 388.3081 356.4285 387.9091 355.5291 385.7543 352.0004 384.9562 350.9625 384.2379 350.2706 382.961 349.7863 382.3225 349.4403 381.4446 348.6793 380.886 347.503 380.4869 346.3268 374.5014 320.519 374.5812 318.6508 375.2994 317.7514 376.2571 317.3362 381.8437 316.0216 399.7207 308.8259 400.5986 308.134 401.0774 307.0269 401.0774 306.1275 400.5986 304.9512 399.2418 302.5296 398.5236 302.1144 397.5659 301.9761 359.4176 302.322 357.9811 302.1836 356.0657 301.6301 355.0282 301.215 354.4695 301.0074 353.8311 300.9382 353.1926 300.9382 352.5542 301.0074 350.4791 301.6993 349.282 301.9069 347.4464 302.0453 346.9676 302.1144 340.5032 302.1144 339.8647 302.1836 336.6724 303.1523 335.7945 303.2907 331.5647 303.4982 330.2079 303.4291 328.2127 303.0831 322.9454 303.0831 320.631 303.4982 319.354 303.5674 318.7156 303.4982 317.4386 303.2907 307.2232 302.9447 305.3876 302.4604 304.0309 302.1836 299.8809 301.9761 298.604 301.6993 297.0078 301.0074 296.4491 300.869 295.8107 300.869 290.3837 301.5609 289.1068 301.4917 288.3885 301.4225 287.6703 301.1458 286.8722 300.6615 285.7549 299.6928 285.3558 298.309 285.1962 296.856 285.5953 266.966 285.9943 266.4125 286.553 266.1357 289.3462 265.513 294.853 264.8903 295.3318 264.7519 295.5713 264.406 295.252 263.6449 294.7732 263.2297 294.2145 262.953 292.0597 262.5378 291.2616 262.1919 290.2241 261.5 289.8251 260.8773 289.6655 260.2546 289.8251 259.7702 290.1443 259.3551 290.5434 259.0091 291.3414 258.4556 291.7405 258.1097 292.0597 257.6253 292.2193 257.141 292.2991 256.5183 292.1395 256.034 291.5809 254.581 291.4212 253.4048 291.5011 251.3291 291.2616 250.568 290.8626 250.222 290.3039 250.0836 289.8251 250.222 289.3462 250.3604 288.7078 250.4988 288.0693 250.4296 287.1116 249.8069 286.6328 249.3226 286.3933 248.6307 286.1539 247.2469 285.5953 245.5863 285.5155 245.0328 285.5155 244.5485 285.5953 244.3409 285.5953 244.2717 285.9145 243.8566 286.2337 243.5106 287.9097 242.3344 288.3087 241.9884 288.628 241.5733 288.8674 241.1581 289.1068 240.6046 289.3462 239.3592 289.5059 238.8749 289.8251 238.4597 290.2241 238.1138 290.6232 237.9062 291.102 237.6295 291.4212 237.2143 291.5011 236.5916 291.3414 235.623 291.3414 234.8619 291.3414 234.3083 292.2193 232.1635 293.4962 229.811 293.5761 229.1191 293.6559 228.1504 292.4587 223.3763 292.4587 222.6153 292.5386 221.9925 293.0174 220.9547 293.3366 219.7785 293.4962 219.2249 296.2097 216.9417 296.6088 216.6649 297.0876 216.5265 297.5665 216.5957 298.0453 216.8033 298.4443 217.1493 298.7636 217.426 299.2424 217.5644 299.6415 217.426 300.0405 217.1493 300.7588 216.3882 302.3549 215.0736 305.1482 212.1676 305.3078 211.5449 305.228 210.7146 304.5896 208.3621 304.5896 207.6702 305.1482 206.0097 305.7069 203.588 305.9463 203.1037 306.505 202.2734 306.6646 201.7891 306.7444 201.0972 306.6646 200.2669 306.3453 198.9523 306.2655 198.122 306.2655 197.3609 306.4251 196.8074 307.1434 195.1469 307.7021 193.3479 307.7021 193.2787 307.7819 193.2787 308.1011 192.9328 308.3405 192.5868 308.5002 192.1025 308.58 190.7879 309.378 188.7122 309.6175 187.8127 309.8569 184.0765 313.2088 184.63 314.5656 184.3532 315.8425 183.7305 326.1377 181.3781 327.8137 181.1705 329.33 181.3089 331.6445 181.8624 332.2829 181.7932 332.8416 181.5165 333.4002 181.1705 333.9589 181.2397 334.4377 181.5856 334.9166 182.0008 335.7945 182.5543 336.3531 182.5543 336.832 182.3467 337.5503 181.3089 338.1089 180.7554 339.9445 179.6483 340.4233 179.2332 344.4137 174.4591 345.4512 172.3834 346.5686 170.5153 350.559 165.9487 351.5167 165.1876 352.2349 164.8417 353.033 164.7725 355.1878 165.0493 356.0657 165.0493 356.6244 164.7725 357.0234 164.3574 357.8215 162.9736 358.4599 162.3508 359.3378 161.6589 362.2109 159.9292 363.0888 159.5833 367.7975 158.1995 369.0744 157.9919 369.7129 157.9919 372.5062 158.407 373.384 158.407 374.0225 158.2686 374.5014 157.9919 377.6139 155.7086 378.1725 155.5702 378.6514 155.7086 379.21 156.2621 379.6889 156.8157 380.1677 157.7151 380.5668 159.3065 380.8062 159.7216 381.6841 161.0362 381.9235 161.4514 382.562 162.9044 383.1206 163.7346 383.7591 164.4957 384.1581 164.8417 384.637 165.1184 391.6601 167.4017 394.5332 169.685 395.0918 169.9617 396.7678 170.2385 397.4062 170.4461 397.9649 170.6536 398.3639 170.9996 398.763 171.3455 399.162 171.6915 399.6409 171.9682 406.1053 174.1131 406.664 174.2515 407.8611 174.3207 408.739 174.1131 409.7765 173.8364 410.5746 173.698 411.2928 173.8364 411.9313 174.1131 412.5698 174.5283 413.6073 175.2202 413.9265 175.5661 414.3255 175.9121 415.0438 177.2959 415.363 178.3337 415.8419 180.5478 416.0015 181.0321 416.1611 181.5165 416.4803 181.9316 423.264 189.4733 423.9823 189.8884 424.8602 190.3036 426.6958 190.8571 427.414 191.3414 427.6535 191.8257 426.9352 193.5555 426.6958 193.9706 426.3765 194.3166 425.9775 194.5933 424.2217 195.7004 423.4236 196.3231 422.7852 197.1534 422.5458 197.6377 422.0669 198.6755 421.5083 199.575 420.7102 200.1977 420.2313 200.5437 419.8323 200.8204 419.5131 201.2356 419.1938 201.6507 419.0342 202.135 419.0342 202.7578 419.3534 203.3805 420.5506 204.5567 420.8698 205.041 421.0294 205.5945 421.2688 207.947 420.8698 210.4378 420.79 212.9287 420.7102 213.5514 420.4707 214.1049 420.2313 214.6584 419.9919 215.0736 419.6727 215.4887 417.9967 216.6649 417.5977 217.0801 417.5179 217.5644 417.6775 218.1871 418.6352 219.2249 419.114 219.8477 419.3534 220.5396 419.1938 221.0239 418.6352 221.9925 417.9967 222.7536 416.7198 223.7223 416.3207 224.0682 416.0015 224.4834 415.8419 225.0369 415.363 227.6661 415.1236 228.2196 414.8842 228.704 413.5275 230.2953 413.288 230.7797 412.5698 232.371 411.4524 234.2392 408.739 240.6046 408.1005 241.4349 407.8611 241.85 407.7015 242.4036 407.5419 243.5106 407.3822 243.9257 407.2226 244.2025 407.1428 244.2717 407.063 244.4101 407.063 244.6176 407.063 245.102 407.3024 246.0706 407.5419 246.555 407.7813 247.662 407.7813 248.2155 407.7015 249.3917 407.7813 249.9453 407.9409 250.4296 408.1803 250.9139 408.4197 251.3983 408.6592 252.5053 408.9784 253.0588 409.4572 253.6815 410.8938 255.0653 411.2928 255.6188 411.3726 256.1724 411.3726 256.7951 411.4524 257.3486 411.6121 257.8329 411.9313 258.2481 414.6448 260.6697 414.964 261.0848 415.2034 261.5692 415.6823 262.6762 416.1611 263.2989 418.715 265.9973 419.5131 266.5508 421.7477 267.5887 422.3861 268.073 422.865 268.5573 423.7429 269.872 424.7006 270.9098 425.4986 271.3249 427.0948 271.7401 428.2121 272.086 442.1785 280.7348 446.0093 282.3953 446.568 282.8797 446.8872 283.5024 446.967 284.0559 446.8872 284.6786 446.7276 285.3013 445.6103 287.9997 445.4506 288.5532 445.4506 289.1759 445.5305 290.283 445.4506 290.6981 445.291 290.9749 444.9718 291.3208 444.2535 291.9435 443.9343 292.3587 443.7747 292.843 443.6949 293.3965 444.0939 298.1706 443.8545 300.1079 443.8545 300.7307 443.8545 301.3534 444.0939 302.1144 444.4929 302.9447 445.2112 304.1901 445.9295 304.6745 446.568 304.9512 447.6055 305.228 448.8824 305.7123 452.793 307.9956 453.8305 308.4107 454.3891 308.3415 455.3468 307.9264 455.9055 307.9264 458.4593 308.3415 459.0978 308.4107 459.8959 308.6183 460.7738 308.8951 462.0507 309.587 462.769 310.2097 463.5671 311.0399 464.1257 311.3859 464.6844 311.4551 465.1632 311.2475 465.8017 311.1783 466.52 311.2475 468.7546 312.2162 469.7123 312.4237 470.1113 312.6313 470.5104 312.9081 470.7498 313.4616 471.3084 314.2227 471.8671 314.6378 472.4257 314.8454 473.9421 315.1222 477.3738 316.6443 477.9325 316.8519 481.7633 317.5438 482.3219 317.5438 482.8008 317.267 483.5989 316.6443 483.9979 316.3676 485.6739 315.8832 486.3921 315.814 487.27 315.9524 490.622 317.5438 492.6172 317.6822 493.2556 317.8206 495.7297 319.066 496.2883 319.2735 497.5653 319.5503 498.922 319.6887 501.5557 319.5503 502.1941 319.6195 505.7057 320.4498 507.0624 320.9341 508.4191 321.6952 509.2172 322.3871 511.372 324.6012 512.0903 325.0855 512.8884 325.4314 514.4047 325.8466 516.799 326.8844 519.1134 327.3688 520.4701 327.8531 521.1884 328.199 522.0663 328.8909 525.6577 332.1429 Z" id="MI"/>
<path d="M 791.498 169.4082 791.4182 169.4082 790.8596 169.4774 788.7048 170.0309 781.123 172.9369 780.1653 173.6288 777.7711 175.7737 770.9076 180.5478 770.4287 181.0321 770.1095 181.5856 767.0768 187.3976 766.9172 187.8819 766.9172 189.1273 766.7576 189.8192 766.1989 190.7187 765.5605 191.3414 764.922 191.6874 763.4056 192.3793 762.3681 192.656 759.1758 193.8323 758.5374 194.3166 758.1383 194.8009 757.9787 195.3544 757.8191 197.2226 757.7393 197.8453 757.4998 198.468 757.1806 199.0215 752.9508 203.3805 751.8335 204.0724 750.9556 204.5567 750.3969 204.6259 749.2796 204.9718 748.3219 205.387 747.7633 205.5945 745.9277 205.8021 742.3363 207.3243 741.7777 207.8086 740.5008 209.5384 738.9844 211.1297 738.0267 211.6832 737.3084 211.8216 736.1911 211.4757 735.6325 211.3373 734.9142 211.2681 734.0363 211.4065 732.919 211.7524 731.0834 212.5827 729.4872 213.6206 725.3372 217.6336 724.2997 218.3255 721.9853 219.5709 721.1074 220.2628 720.6286 220.7471 720.0699 221.5774 719.1122 223.3763 718.3141 224.4142 717.7555 224.9677 717.2766 225.3137 715.1218 226.1439 712.967 227.251 710.1737 228.2888 709.5353 228.704 709.0564 229.1191 708.7372 229.6034 708.5776 230.157 707.8593 234.0316 707.7795 235.3462 708.0189 237.0068 707.9391 237.4911 707.5401 238.0446 683.5977 261.2232 683.5179 261.9151 683.5179 262.5378 683.7573 264.3368 683.3582 265.3746 682.5602 266.7584 678.8092 271.6017 678.5698 272.1552 678.4899 272.7779 678.2505 276.099 678.5698 277.898 678.889 278.8666 679.0486 279.2818 679.1284 280.3196 677.6919 283.1564 677.2928 284.2635 677.6121 286.2008 677.4524 287.2386 676.7342 287.7229 675.6967 288.1381 671.2274 289.1067 670.2697 289.4527 669.4716 289.937 669.0726 290.7673 668.913 291.736 668.8332 292.7738 668.5938 293.7425 668.3543 294.6419 667.7957 295.0571 667.3966 295.3338 667.0774 295.6106 666.4389 296.2333 666.9178 297.0636 668.0351 298.7933 668.3543 300.3847 669.2322 302.1836 669.312 302.9447 668.913 304.0518 668.3543 305.3664 668.3543 306.1275 668.5938 306.681 668.8332 307.0961 669.0726 308.2032 669.2322 308.6875 670.1899 309.9329 671.1476 311.7318 671.4668 312.147 671.7861 312.5621 672.9034 313.6 673.7813 314.9146 674.739 316.0908 674.9784 316.5059 675.2178 317.1287 675.6967 319.1352 676.0957 320.3114 676.3351 320.7265 676.7342 321.1417 677.0534 321.4184 677.6121 321.6952 678.1707 321.8336 680.0063 321.9028 680.7246 322.0411 681.2832 322.1795 681.7621 322.4563 682.1611 322.8022 682.4803 323.2174 684.715 328.6142 686.5506 337.4013 686.7102 337.9548 686.9496 338.37 687.3486 338.7851 687.7477 339.0619 688.7054 339.6154 689.0246 340.0305 689.1842 340.5148 689.3438 341.0684 689.5035 341.5527 689.8227 341.9678 690.7804 343.2132 691.2592 344.0435 691.7381 345.0122 691.8179 345.4965 691.8977 345.9808 691.4986 350.2706 691.5785 352.2079 691.339 354.1453 691.2592 355.5291 691.7381 358.0199 691.0996 359.7496 690.4611 359.3345 689.7429 359.0577 688.7054 358.8502 687.9073 358.8502 686.1515 359.4037 685.1938 359.5421 683.1188 359.0577 679.0486 357.1896 675.2976 356.2901 673.7015 355.1139 669.8707 351.3085 668.4341 350.4782 666.7582 349.9247 665.0024 350.0631 659.9745 350.8241 658.0591 350.6858 654.6274 349.2328 652.3927 348.6793 651.435 348.6793 651.036 349.0252 651.2754 349.4403 651.9139 350.2014 652.1533 350.6166 652.3129 351.1009 652.1533 351.5852 651.435 353.0382 650.7168 355.1831 649.2802 358.0891 648.4023 359.4729 647.7639 360.234 645.9283 362.0329 645.21 362.2405 644.5716 362.1713 644.0927 361.8945 643.6139 361.6178 643.135 361.341 642.4167 361.1334 641.2994 361.1334 640.5014 360.9951 639.9427 360.7875 639.7033 360.3032 639.6235 359.7496 639.6235 359.1961 639.4638 358.6426 639.2244 358.2275 637.309 356.4285 636.7504 356.0826 635.8725 355.7366 635.3138 355.8058 634.835 356.0826 634.0369 356.9129 633.4782 357.328 632.8398 357.4664 632.2013 357.3972 631.1638 356.982 630.2061 356.4977 629.2484 356.2901 627.8917 356.221 625.1782 356.3593 624.1407 356.9129 623.6619 357.4664 623.5821 357.9507 623.183 358.5042 623.1032 362.5864 622.0657 365.0081 622.0657 369.9897 620.8686 370.5433 610.8926 371.6503 594.931 371.9962 590.4617 371.4427 590.1425 370.8892 589.9829 370.3357 589.9031 369.1595 589.9829 367.8449 590.3021 366.7378 590.4617 366.2535 590.6214 366.0459 590.781 365.7 590.7012 365.4924 590.6214 365.354 590.6214 365.2848 590.7012 365.2156 591.0204 364.6621 591.2598 363.9702 591.3396 363.2091 591.2598 362.7248 590.8608 362.5172 590.5416 362.448 587.03 362.1713 585.9127 362.3097 585.2742 362.794 584.1569 364.3854 583.5185 365.1464 582.6406 365.5616 581.1242 365.7692 580.5656 365.9075 580.3261 366.3227 580.4857 367.0838 580.8848 368.0524 580.7252 370.1973 576.2559 374.0719 573.7021 372.6881 571.1482 372.1346 570.7492 371.9962 569.3924 370.82 567.8761 369.0211 565.8809 367.3605 564.3645 365.7692 562.2895 364.1778 561.9703 363.8318 561.8107 363.2783 561.8905 362.9324 561.9703 362.6556 561.8905 362.448 561.8107 362.2405 561.7309 361.9637 561.6511 361.687 561.6511 361.4102 561.6511 361.1334 561.7309 360.7183 562.2097 359.2653 562.6088 358.9885 563.0078 358.9194 563.4068 358.781 563.4866 358.3658 563.4068 357.7431 563.2472 357.0512 562.928 356.2901 562.4491 355.3907 559.9751 352.2771 557.9001 348.8176 557.5809 347.849 557.5011 347.2263 557.6607 346.8111 558.6982 345.2198 558.9376 344.6662 558.2193 344.4587 557.5809 344.1819 556.703 343.7668 555.9847 343.4208 553.8299 343.1441 551.0366 343.1441 549.4404 342.7981 548.4827 342.6597 547.8443 342.5214 547.126 342.2446 544.9712 340.3765 543.4548 339.7538 541.4596 339.2694 537.0702 337.4705 534.5164 335.7407 532.9202 334.2186 531.1644 333.4575 525.6577 332.1429 527.4932 330.4823 528.2115 328.9601 529.0096 324.186 529.249 323.3557 533.6385 314.7762 534.5164 313.8075 535.075 313.6692 535.5539 313.9459 535.7933 314.3611 536.0327 314.7762 537.15 317.8206 537.3894 318.2357 537.6289 318.5816 537.8683 318.8584 539.4644 322.5255 540.0231 322.6638 540.8212 322.5255 542.8962 321.8336 543.6943 321.3492 544.0933 320.9341 544.0135 320.519 543.6943 319.4811 543.6145 318.9968 543.6943 318.5125 544.0933 318.3049 544.652 318.3741 546.8866 319.066 547.2856 319.3427 548.1635 320.0346 548.7222 320.3114 549.4404 320.3806 550.5578 320.2422 550.9568 319.8271 551.1164 319.5503 551.0366 319.1352 550.5578 317.5438 550.5578 316.9211 550.7174 316.2984 551.1962 316.16 551.7549 316.2292 554.0693 316.7827 554.3885 316.9211 554.7078 317.1978 555.1068 317.8206 555.2664 317.613 555.5857 317.3362 560.2145 309.6561 564.604 305.5739 565.3222 304.7437 565.7213 303.9134 565.9607 302.668 566.679 288.5532 566.8386 287.7229 567.1578 286.6851 567.6367 285.9932 568.2751 285.5089 569.3126 284.7478 569.7117 284.1251 569.8713 283.5716 569.7117 283.0872 569.2328 282.1186 568.6742 281.2883 565.8809 278.3131 561.6511 274.5769 561.0126 273.8158 560.6934 273.4006 560.5338 272.9163 560.3741 272.3628 560.2145 268.9725 560.2943 268.073 560.6136 267.5195 561.0126 267.1735 561.9703 266.6892 562.529 266.4816 563.2472 265.7898 564.2049 264.6827 565.9607 262.0535 566.5194 260.8081 566.7588 259.8394 566.5194 259.3551 566.4395 258.8016 566.4395 258.2481 567.3972 254.9961 567.8761 254.1658 568.3549 253.5431 569.7915 252.6437 570.0309 252.021 570.1107 251.5366 568.5944 248.1463 568.4347 247.5236 568.3549 246.6933 568.5944 245.4479 568.8338 244.8252 569.153 244.4101 569.2328 244.3409 569.3126 244.2717 570.9088 243.649 571.3876 243.3722 571.9463 242.8879 572.1857 242.4036 572.2655 241.85 572.1059 241.2965 571.7069 240.3279 571.5473 239.636 571.4674 238.8057 571.7069 237.4219 572.1059 236.6608 572.505 236.5224 572.8242 236.5916 573.6223 236.9376 576.4155 237.9754 577.7723 238.7365 578.3309 239.0824 581.0444 241.5041 583.0396 242.2652 584.3165 242.6111 588.2271 244.2025 593.255 247.316 595.5695 249.2534 596.4473 249.6685 597.0858 249.8069 597.4848 249.7377 597.8839 249.6685 598.2031 249.5301 599.081 248.9766 599.6397 248.6998 600.2781 248.5615 601.5551 248.4231 602.1137 248.2155 603.8695 246.9701 604.1887 246.555 604.1089 246.2782 603.1512 245.5863 602.832 245.1712 602.9118 244.6868 603.231 243.9257 604.6676 243.303 605.7051 242.196 606.1041 240.4662 606.1041 239.9819 606.0243 238.8749 605.9445 238.2522 605.6253 237.1451 605.6253 236.7992 605.7849 236.5224 609.5359 234.9311 610.4137 234.3775 610.8926 233.7548 611.0522 232.717 611.2118 232.0251 611.6109 231.3332 612.5686 230.3645 613.0474 229.7418 613.2868 229.1883 613.2868 228.8423 613.1272 228.358 612.1695 226.4207 611.8503 225.5212 611.6109 224.4834 611.6109 223.8607 611.6907 222.7536 611.5311 222.0617 611.2118 221.5082 610.8128 220.8163 610.6532 220.1244 610.6532 219.4325 611.0522 217.7028 611.132 216.5957 611.0522 215.4887 610.6532 214.3817 610.1743 213.8973 609.2166 213.6206 605.8647 213.7589 604.0291 213.413 603.3108 213.067 602.832 212.4443 602.5926 211.6832 602.3531 210.853 602.0339 210.507 601.5551 210.3686 599.7195 210.2303 601.7147 201.7199 601.6349 200.8896 601.3954 200.0593 600.757 199.9902 600.0387 199.575 599.4002 198.2604 599.5599 197.7069 601.7147 195.3544 603.3108 192.0333 604.6676 190.7879 606.0243 190.096 622.1455 191.4106 622.9436 191.6182 623.0234 192.2409 622.784 192.8636 619.3522 201.5123 619.1926 202.6194 619.3522 203.6572 619.6715 204.7643 620.1503 205.7329 620.8686 206.5632 621.8263 206.3556 624.0609 205.1794 625.258 204.8334 628.7696 206.2172 629.8869 205.7329 631.0042 204.9026 636.3513 199.921 637.4686 199.1599 638.0273 199.1599 638.7456 199.4366 639.3042 199.6442 640.0225 198.8139 640.661 197.9145 641.6985 195.908 642.8158 194.109 643.2946 193.5555 652.5524 188.7814 654.3879 187.1208 654.6274 186.2214 656.3033 183.6613 665.0024 175.4277 666.5986 173.2829 667.6361 170.9996 667.4764 168.232 667.1572 166.5022 666.9178 164.6341 667.1572 162.766 668.0351 161.313 669.1524 160.4827 671.7861 158.9605 672.9034 157.9919 673.462 157.2308 674.3399 155.7086 674.8986 155.0167 675.4572 154.6016 677.4524 153.4945 679.1284 152.0416 680.4851 150.381 682.7996 146.7139 683.1986 145.6761 683.8371 142.355 684.4755 140.4868 685.5131 138.6879 686.79 137.1657 688.3063 135.9895 691.5785 134.3981 692.5362 133.5679 693.0948 132.53 694.2121 127.6867 694.9304 126.0262 695.8881 124.5732 696.9256 123.4661 699.7987 121.7364 701.3948 121.1137 702.9112 120.8369 703.8689 121.0445 705.5449 121.7364 706.5026 121.8748 708.6574 121.8056 711.0516 121.252 713.366 120.4218 715.3612 119.3839 717.0372 118.2077 717.9151 117.7926 719.0324 117.585 723.1824 117.7234 724.619 117.585 727.2526 116.6855 732.1209 113.8487 734.7546 112.9493 737.3084 112.6725 751.1152 114.3331 751.9931 114.6098 753.7489 115.5093 754.6268 115.786 760.4527 116.2704 762.3681 116.0628 764.1239 115.3017 766.8374 112.8109 767.1566 112.6033 767.2364 112.6033 768.1143 112.0498 769.5509 111.4963 771.147 111.2195 774.3393 111.4271 780.5644 112.7417 783.7567 112.9493 785.4326 112.5341 788.4653 110.666 790.1413 109.9741 791.4182 109.8357 790.7 112.7417 787.8269 123.4661 786.0711 126.7872 784.4749 128.7937 777.2124 135.6435 777.2922 136.3354 783.1182 146.1604 787.348 153.4945 789.9817 159.3757 791.3384 165.6028 791.498 169.4082 Z" id="ME"/>
<path d="M 734.2757 579.9119 724.5392 574.0308 722.943 572.0243 723.0228 570.5021 719.4314 562.2685 718.7132 559.8468 718.1545 559.3625 710.9718 555.9722 712.1689 554.45 711.8497 553.4122 709.6151 551.7516 709.0564 550.783 708.7372 549.8835 707.7795 545.1094 707.3804 544.2099 706.4227 542.9645 706.4227 542.1342 707.8593 539.7818 708.2583 538.8131 708.7372 536.599 712.4083 530.0952 714.3237 524.8367 714.4833 522.761 714.8824 520.9621 715.8401 519.4399 717.9949 516.8107 719.0324 510.7912 720.5488 508.7847 721.3468 503.8722 721.9055 489.5499 726.9334 460.8361 727.0132 450.6652 726.3747 449.7657 726.1353 448.797 724.2997 447.69 718.9526 445.1992 712.1689 440.2175 710.8122 439.7332 709.8545 439.4564 709.0564 439.3872 707.0612 439.4564 704.7468 439.8024 704.1083 439.5948 703.4698 439.1796 702.592 438.2802 701.9535 437.7267 701.1554 437.2423 700.0381 436.9656 699.1602 436.8272 698.0429 436.5504 696.766 435.9969 694.5314 434.4747 693.015 433.0217 692.2169 432.1223 691.4188 430.6001 690.94 430.1158 690.3015 429.6314 687.5881 428.4552 687.0294 428.1093 686.4707 427.6249 685.6727 426.6563 685.3534 425.9644 685.0342 425.3417 684.0765 422.2973 683.5179 421.6054 682.7996 420.7751 679.6073 418.0075 677.213 415.3783 676.8938 414.894 676.7342 414.4097 676.0159 412.4032 675.6967 411.9188 675.0582 411.2961 673.7813 410.4658 669.0726 408.0442 668.4341 407.4907 667.5563 406.5912 667.0774 405.8993 666.838 405.2766 666.7582 404.7231 666.5986 404.1696 666.4389 403.6852 666.0399 403.2701 662.9274 400.3641 662.3687 399.4646 662.1293 398.6344 662.1293 397.5273 662.1293 397.1814 661.7303 396.8354 661.012 396.5587 658.538 396.2127 657.5005 395.936 656.0639 395.3824 655.186 394.8981 654.3879 394.2754 653.9091 393.9986 653.111 393.9294 651.9937 394.3446 651.5149 394.4138 650.8764 394.2754 650.2379 393.9294 649.5995 393.1684 649.2004 392.6148 648.6418 391.9229 647.7639 391.231 645.1302 389.4321 644.0927 388.9478 642.1773 388.5326 641.5389 388.3251 641.06 388.0483 639.9427 387.0105 639.5437 386.7337 638.985 386.5261 637.8677 386.4569 637.1494 386.5953 636.5908 386.8029 636.1119 387.1488 635.6331 387.2872 634.9946 387.218 633.7975 386.6645 632.5206 385.8342 628.7696 382.8591 612.2493 373.2417 610.8926 371.6503 620.8686 370.5433 622.0657 369.9897 622.0657 365.0081 623.1032 362.5864 623.183 358.5042 623.5821 357.9507 623.6619 357.4664 624.1407 356.9129 625.1782 356.3593 627.8917 356.221 629.2484 356.2901 630.2061 356.4977 631.1638 356.982 632.2013 357.3972 632.8398 357.4664 633.4782 357.328 634.0369 356.9129 634.835 356.0826 635.3138 355.8058 635.8725 355.7366 636.7504 356.0826 637.309 356.4285 639.2244 358.2275 639.4638 358.6426 639.6235 359.1961 639.6235 359.7496 639.7033 360.3032 639.9427 360.7875 640.5014 360.9951 641.2994 361.1334 642.4167 361.1334 643.135 361.341 643.6139 361.6178 644.0927 361.8945 644.5716 362.1713 645.21 362.2405 645.9283 362.0329 647.7639 360.234 648.4023 359.4729 649.2802 358.0891 650.7168 355.1831 651.435 353.0382 652.1533 351.5852 652.3129 351.1009 652.1533 350.6166 651.9139 350.2014 651.2754 349.4403 651.036 349.0252 651.435 348.6793 652.3927 348.6793 654.6274 349.2328 658.0591 350.6858 659.9745 350.8241 665.0024 350.0631 666.7582 349.9247 668.4341 350.4782 669.8707 351.3085 673.7015 355.1139 675.2976 356.2901 679.0486 357.1896 683.1188 359.0577 685.1938 359.5421 686.1515 359.4037 687.9073 358.8502 688.7054 358.8502 689.7429 359.0577 690.4611 359.3345 691.0996 359.7496 691.7381 358.0199 691.2592 355.5291 691.339 354.1453 691.5785 352.2079 691.4986 350.2706 691.8977 345.9808 691.8179 345.4965 691.7381 345.0122 691.2592 344.0435 690.7804 343.2132 689.8227 341.9678 689.5035 341.5527 689.3438 341.0684 689.1842 340.5148 689.0246 340.0305 688.7054 339.6154 687.7477 339.0619 687.3486 338.7851 686.9496 338.37 686.7102 337.9548 686.5506 337.4013 684.715 328.6142 682.4803 323.2174 682.1611 322.8022 681.7621 322.4563 681.2832 322.1795 680.7246 322.0411 680.0063 321.9028 678.1707 321.8336 677.6121 321.6952 677.0534 321.4184 676.7342 321.1417 676.3351 320.7265 676.0957 320.3114 675.6967 319.1352 675.2178 317.1287 674.9784 316.5059 674.739 316.0908 673.7813 314.9146 672.9034 313.6 671.7861 312.5621 671.4668 312.147 671.1476 311.7318 670.1899 309.9329 669.2322 308.6875 669.0726 308.2032 668.8332 307.0961 668.5938 306.681 668.3543 306.1275 668.3543 305.3664 668.913 304.0518 669.312 302.9447 669.2322 302.1836 668.3543 300.3847 668.0351 298.7933 666.9178 297.0636 666.4389 296.2333 667.0774 295.6106 667.3966 295.3338 667.7957 295.0571 668.3543 294.6419 668.5938 293.7425 668.8332 292.7738 668.913 291.736 669.0726 290.7673 669.4716 289.937 670.2697 289.4527 671.2274 289.1067 675.6967 288.1381 676.7342 287.7229 677.4524 287.2386 677.6121 286.2008 677.2928 284.2635 677.6919 283.1564 679.1284 280.3196 679.0486 279.2818 678.889 278.8666 678.5698 277.898 678.2505 276.099 678.4899 272.7779 678.5698 272.1552 678.8092 271.6017 682.5602 266.7584 683.3582 265.3746 683.7573 264.3368 683.5179 262.5378 683.5179 261.9151 683.5977 261.2232 707.5401 238.0446 707.9391 237.4911 708.0189 237.0068 707.7795 235.3462 707.8593 234.0316 708.5776 230.157 708.7372 229.6034 709.0564 229.1191 709.5353 228.704 710.1737 228.2888 712.967 227.251 715.1218 226.1439 717.2766 225.3137 717.7555 224.9677 718.3141 224.4142 719.1122 223.3763 720.0699 221.5774 720.6286 220.7471 721.1074 220.2628 721.9853 219.5709 724.2997 218.3255 725.3372 217.6336 729.4872 213.6206 731.0834 212.5827 732.919 211.7524 734.0363 211.4065 734.9142 211.2681 735.6325 211.3373 736.1911 211.4757 737.3084 211.8216 738.0267 211.6832 738.9844 211.1297 740.5008 209.5384 741.7777 207.8086 742.3363 207.3243 745.9277 205.8021 747.7633 205.5945 748.3219 205.387 749.2796 204.9718 750.3969 204.6259 750.9556 204.5567 751.8335 204.0724 752.9508 203.3805 757.1806 199.0215 757.4998 198.468 757.7393 197.8453 757.8191 197.2226 757.9787 195.3544 758.1383 194.8009 758.5374 194.3166 759.1758 193.8323 762.3681 192.656 763.4056 192.3793 764.922 191.6874 765.5605 191.3414 766.1989 190.7187 766.7576 189.8192 766.9172 189.1273 766.9172 187.8819 767.0768 187.3976 770.1095 181.5856 770.4287 181.0321 770.9076 180.5478 777.7711 175.7737 780.1653 173.6288 781.123 172.9369 788.7048 170.0309 790.8596 169.4774 791.4182 169.4082 791.498 169.4082 791.498 170.4461 791.8971 172.6601 792.9346 174.7358 793.8923 175.4277 796.1269 176.604 796.8452 177.5726 796.925 179.164 796.2865 180.7554 795.8077 181.4473 794.3711 183.5921 790.3807 191.0647 789.7423 191.8949 788.7846 192.4485 788.1461 193.1404 788.1461 194.2474 789.2634 197.7069 789.7423 198.5372 791.498 199.8518 795.3288 201.5815 796.6856 203.3805 797.1644 205.4562 796.7654 207.3935 795.0894 211.1989 794.6904 215.1427 794.9298 219.5709 794.5308 223.3072 791.9769 224.9677 790.2211 225.7288 789.1038 227.4585 788.4653 229.5342 788.2259 231.5407 788.3855 233.5473 789.5827 236.384 789.7423 238.183 789.3432 239.4976 788.5452 240.1895 787.7471 240.743 787.2682 241.5041 787.4278 242.4728 788.625 243.9257 788.5452 244.756 787.9865 246.8317 788.2259 249.115 791.8173 259.6318 792.1365 263.0222 792.0567 263.7832 791.1788 265.9281 790.3807 267.3119 789.7423 268.073 789.5827 268.9033 790.0615 270.4255 791.5779 272.5704 796.3663 276.3066 798.2019 278.2439 799 280.1813 798.5212 281.3575 795.5683 283.4332 793.4134 286.4083 793.174 286.3392 793.2538 287.377 794.6106 288.83 794.9298 289.8678 794.2913 291.9435 792.4557 293.2581 790.2211 294.296 788.2259 295.403 786.3903 296.3025 784.4749 296.856 782.7192 297.5479 781.4422 298.9317 781.2028 300.6615 781.5221 302.7372 782.8788 306.4042 785.9115 312.2162 786.7096 314.9838 786.4701 318.3741 785.7519 321.0725 784.7144 323.2866 782.9586 324.6704 780.2451 324.8779 776.0951 324.6012 772.9826 325.0163 763.1662 329.3753 763.0066 330.2747 763.7249 335.8099 764.3633 337.3321 765.6403 338.0932 764.523 338.9235 763.246 339.6154 762.2883 340.4457 762.1287 341.6911 762.847 343.9743 763.0066 345.0814 762.847 346.396 763.0864 347.7798 763.9643 348.5409 765.0816 348.956 766.4383 349.0252 772.823 348.1257 774.5788 348.2641 775.6961 348.7484 776.2547 349.1636 776.574 349.8555 776.8134 351.1009 777.2922 352.3463 778.0903 353.1074 779.048 353.8685 779.9259 354.8372 780.5644 358.3658 777.6115 370.9584 777.5317 373.5184 777.1326 375.3174 776.3345 377.0471 774.898 379.2612 771.0672 383.4126 770.8278 384.3812 770.9874 387.3564 770.3489 391.5078 770.5086 393.6527 771.5461 394.8289 773.5413 394.8981 775.3768 394.6905 776.8134 395.1749 777.5317 397.3889 777.5317 399.2571 776.8134 406.6604 776.8932 407.5599 777.1326 408.5977 777.2922 409.9123 776.8134 410.881 776.2547 411.7804 775.9355 412.8183 776.2547 415.1016 777.372 416.2086 779.2874 416.5545 781.6019 416.6929 783.9163 416.0702 786.949 413.1642 788.8644 412.5415 790.6202 413.5102 790.7798 415.5859 789.9817 419.5297 790.7798 421.3286 792.5356 422.92 794.6904 424.2346 796.925 425.1341 797.9625 426.3103 797.6433 428.2476 797.0048 430.6693 796.8452 434.8207 794.85 440.8402 794.4509 448.3819 795.0894 450.8035 795.4086 451.5646 789.9019 451.3571 788.5452 452.5333 787.9067 455.6468 787.1086 457.0998 785.5125 457.5842 783.8365 457.8609 782.9586 458.8296 782.1605 463.7421 781.6817 465.3334 780.2451 467.7551 780.0855 468.7237 780.1653 469.4848 780.8836 470.7994 780.9634 471.6297 780.1653 474.7433 779.6067 476.1962 778.8884 477.5108 774.3393 482.8385 767.7153 490.5185 764.523 496.3997 761.171 502.5576 758.5374 505.1868 754.2277 505.8787 749.4392 505.3252 744.97 505.8787 741.7777 509.8225 740.6604 514.1123 740.5008 518.3329 741.9373 529.3341 743.3738 539.9201 742.7354 543.7948 740.3411 548.2921 735.1536 554.45 727.3324 563.9982 727.8911 564.8977 729.3276 565.728 730.2853 566.9042 730.6844 566.9734 731.1632 566.9734 731.4824 567.181 731.4824 567.8729 731.0834 568.4956 730.6844 569.0491 730.5248 569.4642 738.0267 581.3649 738.1065 581.8492 738.2661 582.2644 734.2757 579.9119 Z" id="MA"/>
<path d="M 460.8536 552.7895 462.4497 557.6328 463.168 559.0857 467.7969 564.1366 468.2757 564.4826 469.0738 564.8285 471.5479 566.1431 471.9469 566.4891 472.0267 566.7658 471.7873 566.9734 471.7873 567.5269 472.0267 568.4264 473.0642 570.5713 473.6229 571.4707 474.1017 571.9551 474.9796 572.0934 475.5383 572.301 476.5758 572.9237 476.9748 573.4081 477.1344 574.1691 477.294 576.9367 477.5335 577.6286 477.7729 577.9054 478.1719 577.9746 478.7306 578.0438 479.5287 578.3897 479.8479 578.8049 480.0873 579.2892 480.0873 579.8427 480.2469 580.5346 480.5662 580.8806 480.9652 581.1573 481.6037 581.3649 481.8431 581.5725 482.0825 581.8492 483.5989 585.3087 484.1575 586.2082 484.6364 586.8309 485.1152 587.1077 486.1527 587.592 487.0306 588.2147 487.4296 588.5606 487.8287 588.9066 489.0258 589.5293 489.5047 589.8752 490.622 590.9131 492.2979 593.6807 492.7768 594.165 493.8941 594.7877 495.7297 596.3791 496.5278 597.6937 497.1662 598.3856 497.7249 598.8699 498.3633 599.0775 499.1614 599.5618 499.5605 600.1154 500.0393 601.0148 500.4383 601.2916 500.8374 601.3608 501.0768 601.2916 501.2364 601.2916 501.6355 601.2224 502.0345 601.2916 503.3912 601.6375 504.0297 601.7759 505.3864 601.7759 506.2643 602.1219 506.6634 602.7446 507.0624 604.1284 507.4614 604.5435 508.0201 604.8203 508.898 605.0278 510.973 606.1349 511.6913 606.4116 512.5692 606.6192 513.048 606.9652 513.3672 607.3803 513.5269 607.8646 513.6067 608.4873 513.3672 609.8019 513.6865 610.2171 514.1653 610.563 514.8038 610.7014 523.024 611.6701 524.2211 612.016 524.7798 612.0852 525.2586 612.016 525.8173 611.7393 526.2961 611.6009 526.9346 611.5317 529.3288 612.6387 531.8029 614.2993 534.0375 615.2679 534.8356 615.9598 537.9481 617.0669 540.0231 617.2053 540.8212 617.482 541.1404 617.828 541.1404 618.3123 540.502 619.0734 540.3423 619.4885 540.4221 619.8345 541.3 621.0107 543.375 623.1556 543.9337 623.8475 544.7318 625.2313 545.2106 625.3697 545.7693 625.4389 546.3279 625.3697 546.8866 625.508 548.1635 626.1999 550.4779 627.0994 551.1164 627.0994 551.6751 626.961 552.7126 626.5459 553.351 626.6843 553.7501 627.0302 553.7501 627.5146 553.6703 628.0681 553.5905 628.6908 553.9895 629.1059 555.426 629.7286 555.7453 630.213 555.9049 630.8357 555.8251 631.3892 555.9049 631.9427 556.6232 634.1568 556.9424 634.8487 557.3414 635.333 559.8953 636.7168 560.5338 637.2703 560.9328 637.893 561.252 638.5157 565.8809 643.9817 566.0405 644.3969 565.8809 645.5731 565.9607 646.265 566.679 647.3721 567.3972 647.9948 568.1953 648.4099 569.2328 648.8942 569.4722 649.3786 569.5521 649.8629 569.3126 650.3472 569.3126 650.9007 569.3126 651.8694 569.153 652.1462 569.0732 652.2845 568.9934 652.3537 568.9136 652.4921 568.6742 652.7689 568.5944 653.2532 568.8338 653.53 569.3924 653.5991 570.0309 653.5991 570.829 653.8067 571.7867 654.1527 573.2232 655.0521 573.9415 655.6748 574.58 656.5743 575.1386 657.197 576.2559 657.9581 576.7348 658.65 577.2934 660.103 577.6925 660.4489 578.2511 660.5873 579.6079 660.3798 580.5656 660.4489 580.9646 660.7257 581.2838 661.2792 581.2838 662.4555 581.4434 662.9398 581.7627 663.4933 582.6406 664.462 582.9598 664.9463 583.1194 665.4998 583.3588 666.8836 583.7579 667.8523 584.2367 668.3366 584.7156 668.6825 586.3117 668.9593 587.3492 669.3053 587.8281 669.7204 587.9877 670.2047 587.8281 671.3809 588.2271 671.6577 588.7858 671.7269 590.0627 671.6577 590.781 671.7269 591.5791 672.0037 591.9781 672.488 592.0579 673.0415 592.1377 673.8026 592.3771 674.5637 593.0954 675.8091 593.4146 676.501 593.4944 677.7464 593.6541 678.4383 594.8512 680.0297 595.0906 680.6524 595.33 681.967 595.5695 682.6589 596.1281 683.074 596.8464 683.3508 597.4848 683.42 598.0435 683.3508 598.682 683.42 599.081 683.9043 600.5176 686.4643 599.5599 686.6719 597.8041 686.326 594.2925 684.873 583.1992 682.4513 577.054 681.8286 574.1011 681.0675 570.7492 682.313 559.4164 683.2124 557.4212 683.7659 554.7078 685.5649 553.1116 686.0492 552.4731 685.8416 550.877 684.8038 549.9193 684.5962 546.9664 684.5962 540.4221 683.9043 538.4269 683.9735 536.5116 684.4578 532.6808 686.0492 530.7654 686.6719 526.6154 687.3638 522.7846 687.433 519.273 686.6719 516.0807 684.5962 514.6442 683.3508 513.1278 682.5205 511.2124 681.967 508.7384 681.7594 504.1893 682.3821 502.4335 682.2438 499.9595 681.0675 497.0864 679.1302 495.5701 678.5075 492.5374 678.1616 492.2979 677.8848 492.1383 677.4005 490.2229 675.4632 489.1854 674.9788 486.9508 674.4945 485.9931 674.1485 483.1998 672.5572 481.6835 672.142 478.0123 671.7961 475.5383 670.6199 472.0267 669.8588 466.1209 666.1917 464.0459 665.6382 457.1824 665.9841 455.9853 666.3993 454.0699 665.223 451.9949 665.4998 448.2439 667.0912 444.8122 666.7452 442.817 667.1604 441.9391 668.8901 440.9016 669.8588 438.3477 669.6512 433.24 668.475 431.0852 668.9593 427.414 670.8966 425.1794 672.0037 423.6631 671.9345 423.0246 671.7961 422.3063 671.3118 414.565 665.0847 413.9265 664.116 413.1284 662.1095 412.5698 661.21 411.5323 660.0338 411.0534 659.6879 401.3966 659.9646 397.6457 659.3419 393.8149 657.4738 390.7822 654.4294 388.8668 650.5548 388.0687 646.1958 388.4677 641.9061 389.5851 639.692 391.261 637.2703 392.538 634.8487 392.2985 632.9114 390.5428 631.6659 386.4725 630.4897 384.7168 629.3135 381.7639 628.6908 375.5389 628.3448 372.4263 627.5837 357.5023 621.0107 352.7936 619.6269 348.883 616.7209 347.4464 616.3058 344.4137 616.029 341.1416 615.1988 340.0243 615.4063 338.907 615.8906 335.3954 616.7901 333.7195 617.3436 332.0435 617.6204 329.8089 617.2053 321.5089 613.1922 317.4386 611.8776 313.6877 611.1857 301.5569 610.9782 293.8953 609.5944 287.9895 609.2484 286.3135 608.7641 284.877 607.8646 283.6799 606.6192 283.0414 605.6505 282.1635 603.5748 281.6049 602.7446 280.9664 602.3986 280.3279 602.4678 279.8491 602.3986 279.45 601.3608 280.0087 600.0462 279.6097 599.4926 278.8116 599.2159 278.4923 599.0775 278.7318 598.1088 279.5299 596.8634 279.8491 596.0331 279.5299 594.9953 276.4971 589.1833 274.8212 587.5228 274.1827 586.5541 274.0231 585.793 274.1029 584.2017 273.8635 583.3714 272.9058 581.9184 269.2346 577.8362 266.601 573.9616 263.5683 570.4329 256.5452 565.5896 254.949 563.9982 251.4374 559.5009 250.6394 557.5636 250.6394 555.7646 251.9163 550.3678 251.9961 548.2229 251.2778 542.4802 251.198 541.5115 251.5173 539.2282 251.4374 538.052 251.5971 536.6682 252.1557 535.7687 252.874 534.8693 253.4326 533.7622 255.0288 525.4594 254.7894 521.3772 252.2355 513.282 253.0336 509.615 254.3105 506.0171 254.6298 502.0041 253.8317 500.2051 252.3951 498.8905 250.5596 498.1986 246.4893 498.1294 242.898 496.6073 237.072 497.5759 228.9316 496.6073 217.3594 496.5381 213.8479 496.9532 210.0171 498.8905 211.6133 484.1531 209.7777 472.1832 204.5104 459.5907 203.2334 457.7917 201.3978 456.6847 199.243 456.1312 197.0882 455.7852 195.8911 455.716 194.8536 455.8544 193.8161 455.7852 192.5392 455.3009 191.4218 454.4706 189.6661 452.1182 188.7882 451.0803 185.3564 449.3506 182.0843 449.0046 178.6526 449.0046 174.9814 448.3819 163.4092 442.8467 159.6583 442.1548 157.1842 442.1548 155.189 441.7397 153.4332 440.9094 151.9169 439.3872 150.4803 437.5191 149.6823 436.758 151.5179 435.7893 154.79 434.0596 156.3861 433.5061 176.3381 428.9395 178.2535 428.8703 180.0093 429.0087 182.2439 429.4239 196.4497 427.7633 199.0036 428.1784 199.6421 428.1784 200.2805 428.3168 200.8392 428.5244 201.3978 428.8012 202.0363 429.1471 203.1536 429.3547 204.2709 429.1471 205.8671 429.0779 207.7027 429.4239 209.3786 429.5622 210.2565 429.4239 210.9748 429.2163 212.4113 428.1093 213.2892 427.5557 214.0075 427.4174 214.8056 427.3482 220.3123 428.0401 222.3075 428.5244 224.2229 429.4931 227.7345 431.7763 229.2508 432.5374 231.4854 433.0909 234.1989 433.4369 235.4758 433.7136 236.2739 434.0596 236.9124 434.8899 237.2316 435.3742 237.8701 436.1353 239.2268 436.9656 239.5461 437.3807 239.8653 437.865 240.0249 438.4186 240.1047 439.0413 240.1845 440.2867 240.5038 442.1548 240.6634 442.6391 240.9028 443.1235 241.6211 443.8154 242.2595 444.2997 242.898 444.8532 244.8932 447.8284 248.4845 451.5646 249.2826 452.1873 251.1182 453.2944 252.7942 454.4706 260.3759 461.3896 262.0519 462.635 264.3663 463.8804 264.7654 464.2264 265.1644 464.5723 265.4836 465.0567 265.9625 465.541 267.1596 466.3021 268.5164 466.7172 272.6664 467.4091 275.9385 467.4091 276.4173 466.8556 276.6568 465.8178 276.8962 462.9118 277.5347 459.729 278.9712 455.6468 279.2904 454.8857 279.7693 454.5398 280.3279 455.0933 283.8395 460.4209 284.3981 460.6977 284.877 460.6977 288.628 458.8988 289.5059 458.5528 293.8953 458.4144 294.9328 458.2761 298.3645 456.9614 298.8434 456.8231 299.1626 456.8231 299.402 457.0998 299.6415 457.4458 300.1203 458.4836 300.3597 458.8988 300.7588 459.2447 301.2376 459.5907 302.6742 460.1442 303.2328 460.4209 303.6319 460.7669 303.9511 461.182 304.0309 461.6664 304.1905 462.2891 304.3501 462.7734 304.9886 463.6037 305.228 464.088 305.3876 464.5723 305.5473 465.7486 305.7867 466.2329 307.9415 468.3778 310.0165 470.0383 310.2559 470.4535 310.4155 471.0762 310.655 471.4913 310.9742 471.8373 311.453 472.1832 311.9319 472.46 312.4107 472.7367 312.8098 473.0135 313.0492 473.4978 313.2088 474.0514 313.4482 474.4665 314.5656 475.5735 315.8425 477.1649 316.0819 477.58 316.4809 478.6179 316.9598 480.1401 317.9973 482.1466 318.556 482.7001 319.1944 482.5617 333.0012 472.8059 335.6349 471.7681 337.3906 473.7054 337.8695 473.7746 338.4281 473.7054 341.7003 471.1454 342.0993 471.0762 342.5782 471.2146 343.2964 471.5605 344.4935 471.8373 345.8503 472.46 351.1176 476.473 351.8359 476.6114 353.2724 476.473 355.9061 473.7054 356.6244 472.1832 358.3003 471.007 360.2157 469.2772 370.1917 457.8609 370.511 457.169 370.511 456.6155 369.8725 454.609 369.7927 454.0555 369.7927 453.3636 370.1119 452.6025 370.4311 452.1182 370.91 451.9106 375.2994 450.1116 382.4821 446.3062 383.6793 445.3375 385.435 442.6391 385.6745 442.1548 385.7543 441.7397 385.6745 441.3937 384.7168 439.1105 383.2802 433.852 382.8812 432.8142 382.7216 432.2607 382.8014 431.5688 383.1206 431.2228 383.6793 431.2228 389.7447 432.3298 390.9418 432.0531 392.2985 431.5688 394.613 429.9082 395.3312 429.0779 395.5707 428.3168 395.6505 427.6941 396.4485 425.7568 396.8476 424.2346 397.0072 423.4043 397.1668 419.3221 397.0072 418.2151 396.688 417.454 396.1293 416.9005 395.3312 416.4854 394.613 415.9318 393.2562 414.6864 392.7774 414.0637 392.538 413.3026 392.7774 412.7491 393.1764 412.2648 397.7255 408.5285 398.6034 407.4215 399.0822 406.522 399.4812 404.9306 399.4812 404.1004 399.4014 403.3393 399.0024 402.5782 398.3639 401.7479 396.8476 400.4333 396.2889 399.7414 395.9697 398.9803 395.9697 397.8733 396.2889 397.3198 396.8476 396.9046 397.486 396.7662 398.2043 396.697 398.8428 396.697 402.1947 397.3198 403.2322 397.6657 404.1899 398.2192 404.6688 398.6344 405.387 399.0495 406.2649 399.1879 407.063 399.0495 408.1005 398.3576 408.5794 397.8041 409.4572 396.0051 414.6448 400.5717 416.0813 402.2322 417.1188 404.9306 419.5131 409.3588 419.9121 409.9815 420.3111 410.4658 422.7054 412.4723 423.1842 413.1642 423.5035 413.8561 423.5833 414.6172 424.3813 416.9005 425.2592 418.2151 427.9727 420.7751 428.6112 421.8822 429.489 423.6811 429.7285 424.6498 429.8881 425.48 428.7708 430.3925 428.7708 431.6379 429.0102 432.6066 429.3294 433.7136 430.4467 435.7201 431.4842 435.9969 433.24 435.5126 434.9958 434.7515 436.5122 434.8899 437.39 435.0974 444.0939 438.2802 448.7228 441.6013 449.3612 441.878 449.9199 441.9472 454.4689 440.9786 455.0276 440.8402 456.0651 440.3559 456.6238 440.2175 457.1824 440.3559 457.5815 441.4629 458.2199 444.5073 458.7786 445.7527 459.5767 446.0294 466.7594 444.3689 468.1959 444.4381 468.9142 445.5451 469.5527 448.1051 469.9517 448.2435 470.3507 448.2435 471.7873 447.3441 472.2661 447.2749 472.5854 447.3441 475.7777 452.4641 475.7777 453.4328 475.4584 454.4706 468.6748 468.0318 468.5152 468.5854 468.0363 473.4286 467.8767 474.1205 461.8113 488.0277 461.6517 488.6504 461.6517 489.4807 461.8113 492.8018 461.7315 493.6321 461.492 494.6699 460.694 496.6073 459.8959 498.0602 458.2199 500.1359 457.5017 500.7587 456.6238 501.1738 455.6661 500.8278 452.2343 498.5446 451.5161 498.337 450.7978 498.4754 450.7978 503.803 450.5584 504.91 449.6007 507.1241 449.6805 508.3695 448.9622 508.9923 448.2439 509.4766 447.6853 509.6842 447.366 510.1685 447.2064 510.722 446.967 511.6215 447.0468 512.175 447.366 512.6593 448.3237 513.4896 448.9622 514.3891 449.3612 515.2193 449.7603 516.3956 450.3189 516.6723 451.2766 516.534 455.5863 515.2193 456.2247 515.2193 456.2247 515.9112 450.8776 539.7126 450.5584 540.612 450.1593 541.1656 435.6343 550.5062 434.2775 551.6132 434.3573 552.0284 434.6766 552.3743 435.7141 552.8586 437.7093 553.4814 438.2679 553.5505 440.9814 553.6889 444.8122 554.5884 448.9622 554.6576 456.0651 553.1354 459.2574 552.7203 460.8536 552.7895 Z" id="MS"/>
<path d="M 345.8503 472.46 344.4935 471.8373 343.2964 471.5605 342.5782 471.2146 342.0993 471.0762 341.7003 471.1454 338.4281 473.7054 337.8695 473.7746 337.3906 473.7054 335.6349 471.7681 336.9118 468.9313 336.6724 467.9626 335.7147 466.9248 334.9964 465.7486 334.1983 465.541 333.4002 465.6102 332.2031 466.0945 331.6445 466.2329 330.9262 466.1637 329.2502 465.7486 328.4521 465.6794 327.1752 465.7486 326.3771 465.6102 325.1002 465.2642 324.6214 464.7799 324.5416 464.2956 324.8608 463.8804 326.2175 463.1193 326.856 462.635 327.1752 462.0123 327.1752 460.9053 327.255 460.1442 327.4146 459.4523 327.8137 458.4836 327.9733 457.9301 328.0531 456.9614 327.0156 453.2944 326.9358 452.049 327.0954 451.5646 327.4146 451.2879 327.8137 451.2879 328.6118 451.4954 334.3579 454.4014 335.3954 454.6782 336.1935 454.6782 336.832 454.3322 338.1089 453.2944 338.7474 453.0176 340.982 452.6717 342.9772 452.049 343.6157 452.049 343.9349 452.1873 344.0147 452.4641 343.6955 453.2944 343.5359 453.7787 343.5359 455.0241 343.3762 455.3701 343.3762 455.6468 343.456 455.9236 343.7753 456.2004 344.0147 456.4079 344.4137 456.4771 344.9724 456.5463 345.5311 456.6155 346.0099 456.8923 347.1272 457.7225 347.7657 457.9993 348.5638 458.0685 349.282 457.8609 350.6388 457.2382 351.357 457.169 351.7561 457.5842 351.9157 458.7604 352.0753 459.1755 352.3945 459.5215 353.1128 459.7982 353.7513 460.0058 354.1503 460.3518 354.1503 460.8361 353.9907 461.528 353.6715 462.2199 353.033 463.4653 352.9532 463.7421 352.8734 464.1572 352.8734 464.6415 353.1926 465.0567 353.5917 465.4026 355.5869 466.648 355.9859 467.0632 356.1455 467.5475 356.1455 468.0318 355.9859 468.5854 355.5869 469.2081 355.0282 469.7616 354.3099 470.3151 352.634 471.007 345.8503 472.46 Z" id="BU"/>
<path d="M 610.8926 371.6503 612.2493 373.2417 628.7696 382.8591 632.5206 385.8342 633.7975 386.6645 634.9946 387.218 635.6331 387.2872 636.1119 387.1488 636.5908 386.8029 637.1494 386.5953 637.8677 386.4569 638.985 386.5261 639.5437 386.7337 639.9427 387.0105 641.06 388.0483 641.5389 388.3251 642.1773 388.5326 644.0927 388.9478 645.1302 389.4321 647.7639 391.231 648.6418 391.9229 649.2004 392.6148 649.5995 393.1684 650.2379 393.9294 650.8764 394.2754 651.5149 394.4138 651.9937 394.3446 653.111 393.9294 653.9091 393.9986 654.3879 394.2754 655.186 394.8981 656.0639 395.3824 657.5005 395.936 658.538 396.2127 661.012 396.5587 661.7303 396.8354 662.1293 397.1814 662.1293 397.5273 662.1293 398.6344 662.3687 399.4646 662.9274 400.3641 666.0399 403.2701 666.4389 403.6852 666.5986 404.1696 666.7582 404.7231 666.838 405.2766 667.0774 405.8993 667.5563 406.5912 668.4341 407.4907 669.0726 408.0442 673.7813 410.4658 675.0582 411.2961 675.6967 411.9188 676.0159 412.4032 676.7342 414.4097 676.8938 414.894 677.213 415.3783 679.6073 418.0075 682.7996 420.7751 683.5179 421.6054 684.0765 422.2973 685.0342 425.3417 685.3534 425.9644 685.6727 426.6563 686.4707 427.6249 687.0294 428.1093 687.5881 428.4552 690.3015 429.6314 690.94 430.1158 691.4188 430.6001 692.2169 432.1223 693.015 433.0217 694.5314 434.4747 696.766 435.9969 698.0429 436.5504 699.1602 436.8272 700.0381 436.9656 701.1554 437.2423 701.9535 437.7267 702.592 438.2802 703.4698 439.1796 704.1083 439.5948 704.7468 439.8024 707.0612 439.4564 709.0564 439.3872 709.8545 439.4564 710.8122 439.7332 712.1689 440.2175 718.9526 445.1992 724.2997 447.69 726.1353 448.797 726.3747 449.7657 727.0132 450.6652 726.9334 460.8361 721.9055 489.5499 721.3468 503.8722 720.5488 508.7847 719.0324 510.7912 717.9949 516.8107 715.8401 519.4399 714.8824 520.9621 714.4833 522.761 714.3237 524.8367 712.4083 530.0952 708.7372 536.599 708.2583 538.8131 707.8593 539.7818 706.4227 542.1342 706.4227 542.9645 707.3804 544.2099 707.7795 545.1094 708.7372 549.8835 709.0564 550.783 709.6151 551.7516 711.8497 553.4122 712.1689 554.45 710.9718 555.9722 718.1545 559.3625 718.7132 559.8468 719.4314 562.2685 723.0228 570.5021 722.943 572.0243 724.5392 574.0308 734.2757 579.9119 730.6844 583.7173 725.7363 588.9066 720.3891 594.4418 715.042 599.977 709.6949 605.5122 704.3477 611.0474 699.0006 616.5825 693.6535 622.1869 688.3063 627.7221 682.9592 633.2573 677.6121 638.7925 672.2649 644.3277 666.9178 649.8629 661.5707 655.4673 656.2235 661.0025 650.8764 666.5377 645.5293 672.0728 640.1821 677.608 634.9148 683.1432 628.2109 687.5022 620.0705 692.8298 617.7561 689.5779 616.7186 688.8168 615.6811 688.7476 614.0849 689.4395 613.207 689.5087 612.4089 689.2319 610.8128 688.2633 610.0945 688.0557 609.3762 687.5714 607.3012 685.2189 606.1839 684.5962 604.6676 684.8038 601.3156 686.326 600.5176 686.4643 599.081 683.9043 598.682 683.42 598.0435 683.3508 597.4848 683.42 596.8464 683.3508 596.1281 683.074 595.5695 682.6589 595.33 681.967 595.0906 680.6524 594.8512 680.0297 593.6541 678.4383 593.4944 677.7464 593.4146 676.501 593.0954 675.8091 592.3771 674.5637 592.1377 673.8026 592.0579 673.0415 591.9781 672.488 591.5791 672.0037 590.781 671.7269 590.0627 671.6577 588.7858 671.7269 588.2271 671.6577 587.8281 671.3809 587.9877 670.2047 587.8281 669.7204 587.3492 669.3053 586.3117 668.9593 584.7156 668.6825 584.2367 668.3366 583.7579 667.8523 583.3588 666.8836 583.1194 665.4998 582.9598 664.9463 582.6406 664.462 581.7627 663.4933 581.4434 662.9398 581.2838 662.4555 581.2838 661.2792 580.9646 660.7257 580.5656 660.4489 579.6079 660.3798 578.2511 660.5873 577.6925 660.4489 577.2934 660.103 576.7348 658.65 576.2559 657.9581 575.1386 657.197 574.58 656.5743 573.9415 655.6748 573.2232 655.0521 571.7867 654.1527 570.829 653.8067 570.0309 653.5991 569.3924 653.5991 568.8338 653.53 568.5944 653.2532 568.6742 652.7689 568.9136 652.4921 568.9934 652.3537 569.0732 652.2845 569.153 652.1462 569.3126 651.8694 569.3126 650.9007 569.3126 650.3472 569.5521 649.8629 569.4722 649.3786 569.2328 648.8942 568.1953 648.4099 567.3972 647.9948 566.679 647.3721 565.9607 646.265 565.8809 645.5731 566.0405 644.3969 565.8809 643.9817 561.252 638.5157 560.9328 637.893 560.5338 637.2703 559.8953 636.7168 557.3414 635.333 556.9424 634.8487 556.6232 634.1568 555.9049 631.9427 555.8251 631.3892 555.9049 630.8357 555.7453 630.213 555.426 629.7286 553.9895 629.1059 553.5905 628.6908 553.6703 628.0681 553.7501 627.5146 553.7501 627.0302 553.351 626.6843 552.7126 626.5459 551.6751 626.961 551.1164 627.0994 550.4779 627.0994 548.1635 626.1999 546.8866 625.508 546.3279 625.3697 545.7693 625.4389 545.2106 625.3697 544.7318 625.2313 543.9337 623.8475 543.375 623.1556 541.3 621.0107 540.4221 619.8345 540.3423 619.4885 540.502 619.0734 541.1404 618.3123 541.1404 617.828 540.8212 617.482 540.0231 617.2053 537.9481 617.0669 534.8356 615.9598 534.0375 615.2679 531.8029 614.2993 529.3288 612.6387 526.9346 611.5317 526.2961 611.6009 525.8173 611.7393 525.2586 612.016 524.7798 612.0852 524.2211 612.016 523.024 611.6701 514.8038 610.7014 514.1653 610.563 513.6865 610.2171 513.3672 609.8019 513.6067 608.4873 513.5269 607.8646 513.3672 607.3803 513.048 606.9652 512.5692 606.6192 511.6913 606.4116 510.973 606.1349 508.898 605.0278 508.0201 604.8203 507.4614 604.5435 507.0624 604.1284 506.6634 602.7446 506.2643 602.1219 505.3864 601.7759 504.0297 601.7759 503.3912 601.6375 502.0345 601.2916 501.6355 601.2224 501.2364 601.2916 501.0768 601.2916 500.8374 601.3608 500.4383 601.2916 500.0393 601.0148 499.5605 600.1154 499.1614 599.5618 498.3633 599.0775 497.7249 598.8699 497.1662 598.3856 496.5278 597.6937 495.7297 596.3791 493.8941 594.7877 492.7768 594.165 492.2979 593.6807 490.622 590.9131 489.5047 589.8752 489.0258 589.5293 487.8287 588.9066 487.4296 588.5606 487.0306 588.2147 486.1527 587.592 485.1152 587.1077 484.6364 586.8309 484.1575 586.2082 483.5989 585.3087 482.0825 581.8492 481.8431 581.5725 481.6037 581.3649 480.9652 581.1573 480.5662 580.8806 480.2469 580.5346 480.0873 579.8427 480.0873 579.2892 479.8479 578.8049 479.5287 578.3897 478.7306 578.0438 478.1719 577.9746 477.7729 577.9054 477.5335 577.6286 477.294 576.9367 477.1344 574.1691 476.9748 573.4081 476.5758 572.9237 475.5383 572.301 474.9796 572.0934 474.1017 571.9551 473.6229 571.4707 473.0642 570.5713 472.0267 568.4264 471.7873 567.5269 471.7873 566.9734 472.0267 566.7658 471.9469 566.4891 471.5479 566.1431 469.0738 564.8285 468.2757 564.4826 467.7969 564.1366 463.168 559.0857 462.4497 557.6328 460.8536 552.7895 466.0411 553.4122 466.8392 553.343 468.0363 553.2046 470.1113 552.2359 482.1623 542.7569 483.5191 542.065 484.4767 541.7191 485.5143 541.5807 486.7912 541.6499 487.5095 541.8575 488.2277 542.2726 488.7066 542.7569 489.4248 543.3104 490.1431 543.7256 490.9412 544.3483 491.5797 544.9018 492.2979 545.3861 492.7768 545.6629 494.2931 546.2164 495.0114 546.5624 495.4104 546.9083 497.0066 548.9148 497.9643 549.7451 499.2412 550.437 501.5557 551.1289 502.1143 551.4057 502.5134 551.7516 503.1518 552.4435 503.7105 552.9278 504.1893 553.2046 504.748 553.4814 505.7057 553.6889 508.2595 554.0349 510.1749 554.0349 512.8884 554.45 513.6067 554.45 514.1653 554.2424 514.4845 553.9657 514.8038 553.8273 515.2826 553.6197 515.7615 553.4122 516.799 552.7203 517.1182 552.6511 517.6769 552.6511 519.5923 553.6889 520.3105 553.8965 520.949 554.1041 521.6673 554.2424 522.5452 554.1041 532.6808 545.317 533.4788 544.2099 533.7183 542.6185 533.1596 535.146 533.3192 534.5925 533.6385 534.039 534.7558 532.7936 535.1548 532.1709 535.474 531.5482 535.9529 529.1265 537.0702 527.12 537.2298 526.4973 537.2298 525.9438 536.751 523.7989 536.751 523.2454 536.9106 522.6227 537.15 522 538.5068 519.7859 538.6664 519.3015 538.6664 518.6788 538.5068 518.1945 538.2673 517.641 538.0279 516.3956 537.8683 515.8421 537.5491 515.4961 536.6712 514.8734 536.2721 514.5274 535.9529 514.1123 535.6337 513.6972 535.474 513.1436 535.3144 512.5901 535.3144 511.9674 535.474 510.0993 535.3942 509.4766 535.2346 508.9231 534.8356 507.8852 534.8356 507.1933 534.9952 506.2938 535.3942 505.1868 535.5539 504.3565 535.3942 503.803 531.1644 499.3749 531.0846 499.3057 530.925 498.7521 530.7654 498.2678 530.6856 497.0224 530.4461 496.4689 530.2067 496.0537 529.8077 495.7078 527.5731 494.2548 527.174 493.9089 526.775 493.5629 526.5356 493.0786 526.2961 492.5251 526.0567 492.0407 525.8173 491.6256 525.4182 491.2796 524.8596 491.1413 523.6625 490.9337 523.1038 490.7261 522.625 490.4494 522.2259 490.1034 521.5875 489.3423 521.348 488.858 521.1884 488.3045 521.1086 487.751 521.1884 487.1974 521.1884 486.6439 521.0288 486.2288 520.55 485.952 520.0711 485.8828 518.0759 485.7444 516.9586 485.3985 516.3999 485.1909 516.0009 484.9142 515.2028 484.2915 514.8038 483.9455 513.447 481.6622 513.048 481.3163 512.5692 481.1087 512.3297 480.486 512.3297 479.4482 513.1278 476.9573 513.2076 474.8816 513.048 472.8751 512.7288 471.2146 512.2499 469.9 511.6913 469.2081 510.3345 468.3778 508.6586 467.8935 506.9826 467.7551 505.2268 468.8621 504.5086 469.1389 504.2691 468.8621 504.1893 465.9561 504.748 461.8047 505.9451 459.5907 506.6634 455.9928 506.5038 454.609 506.2643 453.8479 505.7057 453.156 506.0249 452.6025 506.823 452.049 514.4845 448.5203 515.0432 448.3819 515.6817 448.3127 531.5635 447.69 532.2817 447.5516 532.8404 447.4132 533.3192 446.9289 532.601 446.8597 532.2817 446.8597 532.1221 446.7213 532.1221 446.5138 532.2019 446.1678 532.4413 445.6143 532.5212 445.2684 532.4413 444.9916 532.3615 444.8532 532.2817 444.5073 532.2817 444.0921 532.4413 443.1235 532.7606 442.6391 535.1548 440.9094 535.7135 440.2175 536.0327 439.8024 536.1125 439.4564 536.0327 439.2488 535.9529 439.0413 535.7933 438.8337 535.6337 438.5569 535.474 438.211 535.474 437.6575 535.3942 437.3807 535.3144 437.1731 535.1548 437.0348 535.075 436.8964 534.9952 436.758 534.9154 436.3429 534.7558 436.0661 534.676 435.7893 534.7558 435.305 535.8731 433.2293 536.8308 432.6758 545.5299 432.399 546.4875 432.4682 547.2856 432.745 550.0789 434.198 553.1116 434.9591 554.3885 435.0974 555.6655 435.0282 558.6982 434.3363 559.4164 434.0596 560.2145 433.6445 560.3741 433.1601 560.2145 432.745 559.8953 432.5374 559.5761 432.1915 559.4164 431.9147 559.3366 431.4996 559.177 430.3925 559.0972 429.0779 559.4164 427.1406 560.5338 423.9579 560.6136 423.3352 560.5338 420.8443 560.6136 420.014 562.3693 411.7804 562.529 410.7426 562.3693 409.7047 561.9703 408.2518 561.6511 406.5912 562.6886 401.1944 562.928 392.8224 563.0876 391.9921 563.7261 391.5078 564.8434 391.0235 566.2001 390.2624 566.679 389.4321 566.5992 388.7402 565.9607 388.1175 565.2424 387.7024 562.0501 387.0796 561.4116 386.8029 561.0126 386.4569 561.252 385.9034 562.0501 385.1423 576.2559 374.0719 580.7252 370.1973 580.8848 368.0524 580.4857 367.0838 580.3261 366.3227 580.5656 365.9075 581.1242 365.7692 582.6406 365.5616 583.5185 365.1464 584.1569 364.3854 585.2742 362.794 585.9127 362.3097 587.03 362.1713 590.5416 362.448 590.8608 362.5172 591.2598 362.7248 591.3396 363.2091 591.2598 363.9702 591.0204 364.6621 590.7012 365.2156 590.6214 365.2848 590.6214 365.354 590.7012 365.4924 590.781 365.7 590.6214 366.0459 590.4617 366.2535 590.3021 366.7378 589.9829 367.8449 589.9031 369.1595 589.9829 370.3357 590.1425 370.8892 590.4617 371.4427 594.931 371.9962 610.8926 371.6503 Z" id="MV"/>
<path d="M 518.874 3.4908 518.5548 4.5979 518.6346 8.6801 519.0336 10.1331 520.3105 11.5169 520.7894 12.5547 521.5875 14.7688 521.1884 16.2218 520.3903 17.5364 493.8143 39.8155 493.4152 40.1615 493.2556 40.4382 493.1758 40.8534 493.2556 41.4069 493.4152 41.9604 493.6547 42.3756 493.8941 42.7907 494.6922 43.4826 495.171 43.7594 497.3258 44.5204 497.6451 45.074 497.7249 45.9734 497.3258 48.6027 497.3258 49.5021 497.5653 50.6092 497.7249 51.0935 497.9643 51.5086 498.2835 51.9238 499.0018 52.5465 499.0816 52.8232 499.1614 53.1692 499.1614 53.7227 499.1614 54.3454 499.2412 54.8297 499.8797 55.66 500.2787 56.006 500.6778 56.2827 501.1566 56.4211 501.7153 56.3519 502.2739 56.2827 502.8326 56.3519 503.3114 56.6287 503.5509 57.2514 503.6307 58.22 503.3912 58.8428 503.072 59.2579 500.4383 60.9185 499.9595 61.4028 498.6826 63.4093 498.3633 64.2396 498.2037 65.0698 498.2037 65.6926 498.6826 69.0137 498.6826 70.3975 498.523 71.2277 498.2037 71.8505 497.8845 72.2656 496.6076 73.0959 496.1287 73.5802 495.4902 74.4797 493.7345 78.4235 493.5749 79.4613 493.8143 80.0149 494.2931 80.2916 494.772 80.4992 495.9691 80.8451 496.5278 80.9143 497.0864 80.8451 497.4854 80.5684 497.7249 80.1532 498.2037 79.0462 498.4431 78.5619 498.7624 78.2159 499.1614 77.9392 500.1989 77.524 500.7576 77.4548 501.396 77.4548 503.6307 77.9392 504.1893 78.0084 504.6682 77.8008 504.9874 77.4548 505.6259 76.6246 506.0249 76.3478 506.5038 76.071 508.8182 75.5867 509.2172 75.3791 509.6961 75.1024 510.0153 74.6872 510.3345 74.2721 510.574 73.7878 510.7336 73.3034 510.6538 72.6807 510.1749 70.605 510.0951 69.9823 510.1749 69.4288 510.4143 68.9445 510.7336 68.5293 511.1326 68.2526 512.1701 67.8374 515.8413 67.4223 516.4797 67.4223 517.8365 67.5607 518.4749 67.7683 518.9538 68.2526 519.3528 69.0829 520.3105 71.7813 520.6298 72.4732 522.4653 74.4105 522.7048 74.6181 523.1836 74.8256 523.6625 74.964 529.4884 74.6181 530.2067 74.8256 530.925 75.1716 531.7231 76.5554 532.2019 77.8008 532.9202 80.0841 533.0798 81.2603 533.0798 82.0906 532.8404 82.6441 531.5635 84.9273 531.1644 85.8268 531.0048 86.242 530.7654 88.802 530.1269 91.9847 529.6481 93.0226 529.0894 93.922 528.85 94.4064 527.9721 96.7588 527.2538 101.0486 527.3336 101.9481 527.4932 102.64 528.4509 104.093 529.249 105.6151 529.6481 106.0995 530.0471 106.3762 531.7231 106.9989 532.2019 107.2757 533.0798 107.8984 533.5587 108.106 534.7558 108.3135 535.3144 108.5211 538.5866 110.3892 539.3846 110.8044 539.6241 110.9428 539.9433 111.2195 541.4596 114.6098 541.5395 115.3017 541.3 115.9244 541.1404 116.4088 540.901 116.9623 541.3 117.3082 541.7789 117.585 542.3375 117.7926 542.8164 118.0693 543.375 118.4845 543.8539 119.1764 544.5722 120.491 544.8116 121.3212 544.8914 122.0823 544.7318 122.705 544.2529 123.6737 542.6568 125.6802 542.4173 126.0953 542.1779 126.6489 542.0981 127.2716 541.9385 127.8943 542.577 136.889 542.8164 137.7192 543.0558 138.1344 543.375 138.4803 545.051 139.7949 545.3702 140.2101 545.7693 140.7636 545.6895 141.2479 545.3702 141.5247 544.9712 141.8014 544.5722 142.009 544.1731 142.2858 544.1731 142.6317 544.2529 145.2609 544.652 147.3366 544.9712 147.821 545.3702 148.0977 545.9289 148.2361 546.5674 148.2361 549.1212 148.0285 549.7597 148.0977 550.2385 148.2361 550.6376 148.5129 551.1164 148.7204 551.6751 148.7204 552.1539 148.5821 553.351 147.6826 554.7078 146.9215 555.2664 146.7139 555.8251 146.6447 556.3837 147.0599 556.703 147.6826 556.8626 148.7204 557.2616 149.0664 557.6607 149.0664 558.1395 148.7896 559.0174 148.2361 559.4962 148.0285 559.9751 147.8902 560.6136 147.8902 561.1722 148.0285 562.3693 148.3745 562.928 148.6512 563.4866 149.2048 563.5665 149.7583 563.5665 150.4502 562.4491 158.8222 562.0501 159.86 561.8107 160.2752 560.6136 162.0049 559.2568 163.4579 557.7405 164.8417 557.3414 165.1876 556.9424 165.6028 556.6232 166.1563 556.703 166.5714 557.102 166.9866 557.5809 167.3325 557.9799 167.886 557.9799 168.3704 557.9001 168.9239 554.0693 175.9813 552.553 178.1261 552.3933 178.6797 552.1539 179.3716 553.5107 185.1143 553.6703 186.7749 553.7501 188.1587 552.4731 196.669 552.4731 199.0907 553.0318 199.5058 553.4308 199.7134 567.7963 199.6442 568.3549 199.7826 568.5146 200.1977 568.1953 201.9967 567.3972 203.934 567.2376 204.6951 567.2376 205.6637 567.5569 206.2864 568.5146 206.9091 574.1809 209.054 578.9694 211.5449 580.3261 212.4443 581.0444 212.7903 581.6829 212.7903 582.3213 212.306 582.8002 211.6832 583.4386 211.0605 584.0771 210.7146 585.9925 211.4065 588.7858 215.9038 587.5887 219.0866 584.7954 222.2693 583.5983 223.0996 582.4809 223.5839 581.5233 223.7915 581.0444 224.2066 580.805 224.8985 580.5656 226.0747 580.5656 226.905 580.8848 227.4585 581.2838 227.9429 581.5233 228.5656 581.5233 229.7418 580.8848 231.0564 580.7252 231.9559 580.9646 232.5786 581.5233 232.9937 583.6781 234.1008 584.1569 234.7235 584.6358 235.4154 584.955 236.4532 584.7954 236.9376 584.3963 237.4219 581.0444 238.5289 578.3309 239.0824 577.7723 238.7365 576.4155 237.9754 573.6223 236.9376 572.8242 236.5916 572.505 236.5224 572.1059 236.6608 571.7069 237.4219 571.4674 238.8057 571.5473 239.636 571.7069 240.3279 572.1059 241.2965 572.2655 241.85 572.1857 242.4036 571.9463 242.8879 571.3876 243.3722 570.9088 243.649 569.3126 244.2717 569.2328 244.3409 569.153 244.4101 568.8338 244.8252 568.5944 245.4479 568.3549 246.6933 568.4347 247.5236 568.5944 248.1463 570.1107 251.5366 570.0309 252.021 569.7915 252.6437 568.3549 253.5431 567.8761 254.1658 567.3972 254.9961 566.4395 258.2481 566.4395 258.8016 566.5194 259.3551 566.7588 259.8394 566.5194 260.8081 565.9607 262.0535 564.2049 264.6827 563.2472 265.7898 562.529 266.4816 561.9703 266.6892 561.0126 267.1735 560.6136 267.5195 560.2943 268.073 560.2145 268.9725 560.3741 272.3628 560.5338 272.9163 560.6934 273.4006 561.0126 273.8158 561.6511 274.5769 565.8809 278.3131 568.6742 281.2883 569.2328 282.1186 569.7117 283.0872 569.8713 283.5716 569.7117 284.1251 569.3126 284.7478 568.2751 285.5089 567.6367 285.9932 567.1578 286.6851 566.8386 287.7229 566.679 288.5532 565.9607 302.668 565.7213 303.9134 565.3222 304.7437 564.604 305.5739 560.2145 309.6561 555.5857 317.3362 555.2664 317.613 555.1068 317.8206 554.7078 317.1978 554.3885 316.9211 554.0693 316.7827 551.7549 316.2292 551.1962 316.16 550.7174 316.2984 550.5578 316.9211 550.5578 317.5438 551.0366 319.1352 551.1164 319.5503 550.9568 319.8271 550.5578 320.2422 549.4404 320.3806 548.7222 320.3114 548.1635 320.0346 547.2856 319.3427 546.8866 319.066 544.652 318.3741 544.0933 318.3049 543.6943 318.5125 543.6145 318.9968 543.6943 319.4811 544.0135 320.519 544.0933 320.9341 543.6943 321.3492 542.8962 321.8336 540.8212 322.5255 540.0231 322.6638 539.4644 322.5255 537.8683 318.8584 537.6289 318.5816 537.3894 318.2357 537.15 317.8206 536.0327 314.7762 535.7933 314.3611 535.5539 313.9459 535.075 313.6692 534.5164 313.8075 533.6385 314.7762 529.249 323.3557 529.0096 324.186 528.2115 328.9601 527.4932 330.4823 525.6577 332.1429 522.0663 328.8909 521.1884 328.199 520.4701 327.8531 519.1134 327.3688 516.799 326.8844 514.4047 325.8466 512.8884 325.4314 512.0903 325.0855 511.372 324.6012 509.2172 322.3871 508.4191 321.6952 507.0624 320.9341 505.7057 320.4498 502.1941 319.6195 501.5557 319.5503 498.922 319.6887 497.5653 319.5503 496.2883 319.2735 495.7297 319.066 493.2556 317.8206 492.6172 317.6822 490.622 317.5438 487.27 315.9524 486.3921 315.814 485.6739 315.8832 483.9979 316.3676 483.5989 316.6443 482.8008 317.267 482.3219 317.5438 481.7633 317.5438 477.9325 316.8519 477.3738 316.6443 473.9421 315.1222 472.4257 314.8454 471.8671 314.6378 471.3084 314.2227 470.7498 313.4616 470.5104 312.9081 470.1113 312.6313 469.7123 312.4237 468.7546 312.2162 466.52 311.2475 465.8017 311.1783 465.1632 311.2475 464.6844 311.4551 464.1257 311.3859 463.5671 311.0399 462.769 310.2097 462.0507 309.587 460.7738 308.8951 459.8959 308.6183 459.0978 308.4107 458.4593 308.3415 455.9055 307.9264 455.3468 307.9264 454.3891 308.3415 453.8305 308.4107 452.793 307.9956 448.8824 305.7123 447.6055 305.228 446.568 304.9512 445.9295 304.6745 445.2112 304.1901 444.4929 302.9447 444.0939 302.1144 443.8545 301.3534 443.8545 300.7307 443.8545 300.1079 444.0939 298.1706 443.6949 293.3965 443.7747 292.843 443.9343 292.3587 444.2535 291.9435 444.9718 291.3208 445.291 290.9749 445.4506 290.6981 445.5305 290.283 445.4506 289.1759 445.4506 288.5532 445.6103 287.9997 446.7276 285.3013 446.8872 284.6786 446.967 284.0559 446.8872 283.5024 446.568 282.8797 446.0093 282.3953 442.1785 280.7348 428.2121 272.086 427.0948 271.7401 425.4986 271.3249 424.7006 270.9098 423.7429 269.872 422.865 268.5573 422.3861 268.073 421.7477 267.5887 419.5131 266.5508 418.715 265.9973 416.1611 263.2989 415.6823 262.6762 415.2034 261.5692 414.964 261.0848 414.6448 260.6697 411.9313 258.2481 411.6121 257.8329 411.4524 257.3486 411.3726 256.7951 411.3726 256.1724 411.2928 255.6188 410.8938 255.0653 409.4572 253.6815 408.9784 253.0588 408.6592 252.5053 408.4197 251.3983 408.1803 250.9139 407.9409 250.4296 407.7813 249.9453 407.7015 249.3917 407.7813 248.2155 407.7813 247.662 407.5419 246.555 407.3024 246.0706 407.063 245.102 407.063 244.6176 407.063 244.4101 407.1428 244.2717 407.2226 244.2025 407.3822 243.9257 407.5419 243.5106 407.7015 242.4036 407.8611 241.85 408.1005 241.4349 408.739 240.6046 411.4524 234.2392 412.5698 232.371 413.288 230.7797 413.5275 230.2953 414.8842 228.704 415.1236 228.2196 415.363 227.6661 415.8419 225.0369 416.0015 224.4834 416.3207 224.0682 416.7198 223.7223 417.9967 222.7536 418.6352 221.9925 419.1938 221.0239 419.3534 220.5396 419.114 219.8477 418.6352 219.2249 417.6775 218.1871 417.5179 217.5644 417.5977 217.0801 417.9967 216.6649 419.6727 215.4887 419.9919 215.0736 420.2313 214.6584 420.4707 214.1049 420.7102 213.5514 420.79 212.9287 420.8698 210.4378 421.2688 207.947 421.0294 205.5945 420.8698 205.041 420.5506 204.5567 419.3534 203.3805 419.0342 202.7578 419.0342 202.135 419.1938 201.6507 419.5131 201.2356 419.8323 200.8204 420.2313 200.5437 420.7102 200.1977 421.5083 199.575 422.0669 198.6755 422.5458 197.6377 422.7852 197.1534 423.4236 196.3231 424.2217 195.7004 425.9775 194.5933 426.3765 194.3166 426.6958 193.9706 426.9352 193.5555 427.6535 191.8257 427.414 191.3414 426.6958 190.8571 424.8602 190.3036 423.9823 189.8884 423.264 189.4733 416.4803 181.9316 416.1611 181.5165 416.0015 181.0321 415.8419 180.5478 415.363 178.3337 415.0438 177.2959 414.3255 175.9121 413.9265 175.5661 413.6073 175.2202 412.5698 174.5283 411.9313 174.1131 411.2928 173.8364 410.5746 173.698 409.7765 173.8364 408.739 174.1131 407.8611 174.3207 406.664 174.2515 406.1053 174.1131 399.6409 171.9682 399.162 171.6915 398.763 171.3455 398.3639 170.9996 397.9649 170.6536 397.4062 170.4461 396.7678 170.2385 395.0918 169.9617 394.5332 169.685 391.6601 167.4017 384.637 165.1184 384.1581 164.8417 383.7591 164.4957 383.1206 163.7346 382.562 162.9044 381.9235 161.4514 381.6841 161.0362 380.8062 159.7216 380.5668 159.3065 380.1677 157.7151 379.6889 156.8157 379.21 156.2621 378.6514 155.7086 378.1725 155.5702 377.6139 155.7086 374.5014 157.9919 374.0225 158.2686 373.384 158.407 372.5062 158.407 369.7129 157.9919 369.0744 157.9919 367.7975 158.1995 363.0888 159.5833 362.2109 159.9292 359.3378 161.6589 358.4599 162.3508 357.8215 162.9736 357.0234 164.3574 356.6244 164.7725 356.0657 165.0493 355.1878 165.0493 353.033 164.7725 352.2349 164.8417 351.5167 165.1876 350.559 165.9487 346.5686 170.5153 345.4512 172.3834 344.4137 174.4591 340.4233 179.2332 339.9445 179.6483 338.1089 180.7554 337.5503 181.3089 336.832 182.3467 336.3531 182.5543 335.7945 182.5543 334.9166 182.0008 334.4377 181.5856 333.9589 181.2397 333.4002 181.1705 332.8416 181.5165 332.2829 181.7932 331.6445 181.8624 329.33 181.3089 327.8137 181.1705 326.1377 181.3781 315.8425 183.7305 314.5656 184.3532 313.2088 184.63 309.8569 184.0765 308.6598 179.5791 308.1809 179.0256 307.5425 178.3337 306.7444 178.1261 305.9463 177.7802 304.7492 177.0883 303.7915 175.9121 301.7963 174.4591 301.3972 173.8364 301.1578 173.0061 300.9982 171.9682 300.5194 170.2385 300.5194 168.5088 300.4395 167.6785 300.0405 167.0558 299.402 166.2255 299.1626 165.672 299.0828 165.0493 299.5617 163.9422 299.6415 162.9044 299.3222 162.2125 298.6838 161.313 298.4443 160.6903 298.2847 160.0676 298.3645 159.4449 298.7636 158.1995 298.7636 157.5076 298.5242 157.0924 298.0453 156.8157 296.928 156.4005 296.3693 156.3313 295.8107 156.4005 295.3318 156.5389 294.6934 156.5389 293.9751 156.3313 293.4962 155.7778 293.177 155.0167 292.6982 153.8405 292.2991 153.2178 291.7405 152.8026 290.3039 152.2491 289.5059 151.7648 289.1068 151.3497 288.9472 150.9345 289.027 150.4502 289.2664 148.6512 290.6232 145.1226 290.5434 144.1539 289.9847 143.5312 288.3087 142.7009 287.9097 142.2858 287.9097 142.2166 287.9097 142.0782 287.9895 141.5247 288.3087 140.556 288.9472 136.7506 287.2712 129.3473 286.952 128.5862 296.2895 124.7115 306.3453 116.6163 313.2088 112.3266 350.2397 98.281 355.108 97.4507 357.9811 97.4507 359.4176 97.2432 360.2157 96.4821 362.2907 94.6139 363.0888 92.815 367.159 89.909 368.5158 88.3177 369.234 84.6506 369.6331 83.8203 372.1071 79.8765 372.0273 77.5932 370.3513 73.3034 369.9523 71.5045 370.3513 69.3596 372.7456 63.8936 371.0696 60.9876 371.5485 56.9054 372.9052 52.6849 373.4638 49.1562 373.2244 48.6718 372.7456 48.1183 372.2667 47.3572 372.1071 46.4578 372.3465 45.3507 373.7831 43.275 374.1023 42.5139 376.3369 39.8155 379.7687 36.5636 381.2052 35.9409 381.6841 35.7333 383.8389 35.3182 388.4677 35.249 390.9418 34.8339 392.2187 33.5884 394.4533 29.6446 395.411 28.5376 397.087 27.1538 399.0822 25.9084 401.0774 25.424 402.0351 24.8705 405.6265 21.2035 428.1323 11.1709 429.6487 10.825 438.5074 10.0639 440.3429 8.9568 444.0939 5.8433 446.568 5.1514 448.7228 5.4282 450.718 5.9817 452.793 6.2584 455.267 5.9125 461.093 4.0444 465.4824 3.3525 469.7123 1.4843 472.0267 1 476.5758 1.4151 485.3546 3.6984 489.7441 4.1827 493.7345 3.56 497.8047 2.453 501.8749 1.8995 505.9451 2.7989 508.5788 4.5287 509.7759 4.9438 511.372 4.5287 512.1701 4.0444 513.7663 2.7297 514.6442 2.453 517.198 2.7989 518.874 3.4908 Z" id="MW"/>
</g>
</svg>